<?xml version="1.0" encoding="utf-8"?>
<!-- Generator: Adobe Illustrator 25.2.0, SVG Export Plug-In . SVG Version: 6.00 Build 0)  -->
<svg version="1.1" id="Laag_1" xmlns="http://www.w3.org/2000/svg" xmlns:xlink="http://www.w3.org/1999/xlink" x="0px" y="0px"
	 viewBox="0 0 189 105" style="enable-background:new 0 0 189 105;" xml:space="preserve">
<style type="text/css">
	.st0{fill:#FFFFFF;}
</style>
<path class="st0" d="M48.1,21.4c-14.7,0-26.7,14-26.7,31.1c0,17.1,12,31.1,26.7,31.1s26.7-14,26.7-31.1
	C74.8,35.4,62.8,21.4,48.1,21.4z"/>
<path class="st0" d="M33,37.8c0.3-0.1,0.7-0.1,1-0.2v2.2c0,0.3,0,0.3,0.3,0.3v0.2H33V40c0.3,0,0.3,0,0.3-0.3v-1.6
	c0-0.2,0-0.2-0.2-0.2l-0.2,0V37.8z M59.6,37.6c0,0.2-0.1,0.4-0.1,0.8h0.2c0.1-0.2,0.1-0.3,0.4-0.3h0.9c-0.4,0.7-0.8,1.4-1.3,2.1
	l0,0.1l0.6-0.1c0.4-0.8,0.7-1.7,1.1-2.6l0-0.1L59.6,37.6z M61.9,37.6L61.7,39c0.1,0,0.3-0.1,0.4-0.1c0.3,0,0.6,0.2,0.6,0.5
	c0,0,0,0.1,0,0.1c0,0.3-0.1,0.5-0.3,0.5c-0.2,0-0.4-0.2-0.5-0.3c0,0-0.1,0-0.2,0c-0.1,0.1-0.1,0.1-0.2,0.2c0,0.1,0,0.1,0.1,0.2
	c0.2,0.1,0.4,0.2,0.6,0.2c0.3,0,0.5-0.1,0.7-0.3c0.3-0.2,0.4-0.4,0.4-0.8c0-0.4-0.4-0.8-0.8-0.7c0,0,0,0,0,0c-0.2,0-0.3,0-0.5,0.1
	l0.1-0.6h1.1l0.1-0.5H61.9z M35,37.6L34.9,39c0.1,0,0.3-0.1,0.4-0.1c0.3,0,0.6,0.2,0.6,0.5c0,0,0,0.1,0,0.1c0,0.3-0.1,0.5-0.3,0.5
	s-0.4-0.2-0.5-0.3c0,0-0.1,0-0.2,0c-0.1,0.1-0.1,0.1-0.2,0.2c0,0.1,0,0.1,0.1,0.2c0.2,0.1,0.4,0.2,0.6,0.2c0.3,0,0.5-0.1,0.7-0.3
	c0.3-0.2,0.4-0.4,0.4-0.8c0-0.4-0.4-0.8-0.8-0.7c0,0,0,0,0,0c-0.2,0-0.3,0-0.5,0.1l0.1-0.6h1.1l0.1-0.5H35z M74.8,52.5
	c0,17.1-12,31.1-26.7,31.1s-26.7-14-26.7-31.1c0-17.1,12-31.1,26.7-31.1S74.8,35.4,74.8,52.5z M75.2,52.5C75.2,35.1,63.1,21,48.1,21
	C33.2,21,21,35.1,21,52.5C21,69.9,33.2,84,48.1,84C63.1,84,75.2,69.9,75.2,52.5z M47.2,33.5c0.1,0.1,0.3,0.2,0.4,0.2
	c0.2-0.1,0.3-0.2,0.4-0.3c-0.1,0-0.2,0-0.3,0c-0.1,0-0.1,0.1-0.2,0.1C47.3,33.4,47.3,33.4,47.2,33.5 M47.3,32.9
	c-0.1,0-0.2,0.1-0.1,0.2c0.1,0,0.1-0.1,0.2,0c0.1,0,0.1,0,0.2,0c0,0,0.1-0.1,0.2,0c0.1,0,0.1-0.1,0-0.1c-0.1,0-0.1,0-0.2,0
	c-0.1,0.1-0.1,0-0.1,0C47.3,32.9,47.3,32.9,47.3,32.9 M47.7,32.1L47.7,32.1L47.7,32.1L47.7,32.1z M48.4,31.7c-0.3,0-0.6,0.1-0.8,0.2
	c0,0,0,0.1,0,0.1s0.1,0,0.1,0c0,0,0,0,0,0c0,0,0,0,0,0c0,0,0,0,0,0.1c0,0.1,0.1,0.2,0.2,0.2c0.1,0,0.2-0.1,0.2-0.2
	c0-0.1,0-0.1-0.1-0.1c0.1,0,0.2-0.1,0.4-0.1c0.1,0,0.1,0,0.1-0.1C48.5,31.7,48.5,31.7,48.4,31.7 M47.2,31.7c0.5-0.3,1-0.5,1.6-0.5
	c0.3,0,0.6,0.1,0.7,0.4c0.2-0.2,0.1-0.8-0.6-0.8C48.2,30.8,47.6,31.1,47.2,31.7 M48,46.9c-1.2-0.1-1.3-0.9-1.3-1.3
	c0-0.3,0.3-0.2-0.2-0.4c-0.5-0.3-1.2-0.4-1.7-0.1l0.1,0.1c0.4,0,0.8,0.1,1.1,0.3c-0.1,2.1,1.3,2,1.3,2c0.2,0.3,0.6,0.5,0.9,0.6
	c0.1,0,0.3-0.1,0.4-0.1C48.3,47.7,48,47.3,48,46.9 M51.5,47.2c0,0,0.6-0.2,0.6-0.2c0-0.2,0.2-0.4,0.4-0.5c0.1,0,0.1-0.1,0.2-0.2
	c0.1-0.2,0-0.5-0.2-0.7c-0.4-0.5-0.7-1.2-0.8-1.8c0-0.1-0.1,0-0.1,0s0.4,1.8-0.3,1.9c0.1,0.5-0.3,1-0.8,1.1c-0.1,0-0.2,0.1-0.2,0.2
	c0,0.2-0.1,0.3-0.2,0.5C50.6,47.4,51.1,47.3,51.5,47.2C51.5,47.3,51.5,47.3,51.5,47.2 M51.6,43c0.2-0.1,0.4-0.1,0.7-0.1
	c0.2,0,0.4,0.1,0.5,0.3l0.1,0.4c0,0,0.4,0.2,0.5,0c0.1-0.2,0.1-0.3-0.1-0.5c-0.2-0.3-0.6-0.5-0.9-0.4C52.1,42.6,51.8,42.7,51.6,43
	L51.6,43 M42.4,40.4c-0.5,0.6-0.8,1.3-0.6,2.1c0.1,1.4,0.8,1.6,1.3,0.8c0.5-0.6,0.7-1.2,0.5-1.2c-0.3,0.1-0.9,0.1-1.1-0.2
	c-0.3-0.5-0.2-1,0-1.5L42.4,40.4 M51,63.6c-0.7-0.5-1.4-1.2-1.9-2c-1.4-2.3-1.6-4.1-1.6-9.3c0-0.2,0-0.4,0-0.6l-0.8-0.1
	c0,0-0.2,5.4-0.2,6c0,0.8,0.2,1.6,0.4,0c0.1-0.8-0.1-3.2,0.1-3.2c0.3,0,0.3,9.2,0,9.2c-0.6-0.1-1.1-0.1-1.7-0.1
	c-0.4-0.3-0.8-0.4-1.3-0.3c0.2,0.1,0.4,0.2,0.6,0.3L35,66.2l-0.6-0.4l-4,1.7l4.4-0.4l0.2-0.7l9.9-2.6c0.4,0.2,0.9,0.4,0.9,0.4
	c0.1,0.1,1.4-0.1,1.3,0.4c0,0.3-0.4,0.5-0.7,0.6c-0.3,0.1-0.8,0-0.8,0.1c0.4,0.2,0.8,0.2,1.1,0.1c0.7-0.2,1.3-0.6,1.9-1.1
	c0,0,2.1-0.2,2.4-0.6C51.1,63.7,51,63.7,51,63.6 M34.6,66.7L32,67.1l2.8-0.8L34.6,66.7z M35.3,49.7c0,0,1.3,0.2,1.3-0.5
	c0-0.3-0.2-0.4-0.3-0.4c-0.2,0-0.3,0.2-0.2,0.4C36.3,49.3,36.4,49.5,35.3,49.7 M34.3,49.1c0,0.1,0,0.2,0.1,0.2s0.2,0,0.2-0.1
	c0,0,0,0,0,0c0,0,0-0.1,0-0.1l0.1,0c0,0,0.1,0,0.1-0.1c0,0,0-0.1-0.1-0.1l-0.5,0c0,0-0.1,0-0.1,0.1c0,0,0,0,0.1,0l0.2,0
	C34.3,49,34.3,49,34.3,49.1 M38.1,54c0.2-0.3,0.6-0.3,0.9-0.1c0.1,0.1,0.1,0.1,0.1,0.2c-0.2,0-0.4,0-0.6,0.1c0,0,0.6,0.2,0.5,0.6
	c-0.1-0.2-0.3-0.3-0.5-0.3c0,0,0.2,0.6-0.2,0.7c0,0-0.1-0.5-0.4-0.5c-0.2,0-0.3,0.2-0.3,0.4c0,0,0,0,0,0c0,0-0.2-0.1-0.2-0.5
	c0-0.1-0.1-0.3-0.2-0.3c-0.7-0.2-1.3-0.6-1.8-1.1c-0.4,0.2-0.9,0.4-1.4,0.4c0,0-0.2,0.2,0.1,0.2c0.7,0,1.4,0.4,1.8,1
	c0.1,0.2,0.3,0.3,0.8,0.3c0,0,0,0.6-1,0.6c0,0,0.6,0.4,1,0.8c0.2,0.1,0.2,0.1,0.4,0c0.1-0.1,0.8-0.6,1.1,0.1c0,0-0.4-0.1-0.6,0
	c0.2,0.2,0.3,0.5,0.3,0.8c0,0-0.3-0.4-0.5-0.3c-0.1,0,0.2,0.4-0.2,0.6c0,0,0-0.5-0.4-0.5c0,0,0.1,0.3-0.3,0.4c0,0,0.2-0.6-0.2-0.8
	c-0.1,0-2-0.3-2.3-1.1c0.2-0.1,0.3-0.2,0.5-0.2c0,0-1.1-0.8-1.3-1.4c0,0-0.2-0.1-0.1,0.1c0.1,0.1,0.3,0.3,0.2,1.4
	c0,0.3,0.1,0.6,0.4,0.8c-0.5,0.1-1-0.1-1.3-0.5c0,0,0,1.5,0.8,1.6c0.3,0,1,0,1,0.9c0,0-0.3-0.4-0.6-0.3c0,0,0.2,0.3,0.1,0.5
	c0,0-0.3-0.4-0.5-0.3c0,0,0.1,0.3,0,0.5c0,0-0.3-0.6-0.4-0.6c-0.2,0-0.3,0.3-0.3,0.6c-0.2,0-0.3-0.2-0.3-0.4c0-0.1,0-0.1,0.1-0.2
	c0.1-0.2,0.2-0.2,0.3-0.3c0.1-0.1-2.2-0.9-1.9-2.6c0,0,0.4,0.3,0.6,0.1c0.2-0.2,0.1-0.7-0.4-1.1c0,0,0.4-0.2,0.6-0.2
	c0.1,0,0.1-0.2,0.1-0.4c-0.3,0-0.7-0.1-1-0.3c-0.2-0.3-0.3-0.6-0.2-1c0.2-0.5,0.5-1,0.8-1.4c0.1-0.1,0.2-0.3,0.3-0.4
	c0.2-0.3,0.4-0.8,0.3-1.1c-0.1-0.1-0.2-0.2-0.4-0.2c-0.1,0-0.2,0-0.2,0c0.2,0.4-0.1,0.8-0.5,1.1c-0.6,0.4-0.5,0.9-0.5,0.9
	c-0.1-0.6-0.2-1.1-0.1-1.7c0.1-0.5,0.6-1.1,1-0.6c0,0,0.2,0,0.3,0c0.3,0,0.6,0.1,0.7,0.4c0.3,0.6-0.2,1.4-0.3,1.5
	c-0.1,0.1-0.2,0.2-0.3,0.4c-0.3,0.4-0.6,0.8-0.8,1.3c-0.1,0.3-0.1,0.5,0.1,0.6c0.2,0.2,0.5,0.2,0.8,0.2c0.5-0.4,1-0.8,1.6-1
	c0.3-0.1,0.3-0.4,0.1-0.3c-0.2,0-1,0.2-1.3-0.3c0,0,0.9-0.3,1-0.8c-0.3,0.2-0.6,0.2-0.9,0.1c0,0,0.8-0.6,0.6-1.1
	c-0.1-0.2-0.2-0.8,0-0.9c0.1-0.1-0.2-0.3-0.3-0.3c0.2-0.2,0.5-0.2,0.7,0c0,0,0.2,0,0.2,0c0.2-0.1,0.4-0.1,0.6-0.2
	c0.2,0,0.4-0.1,0.6,0.2c0.1,0.1,0.3,0.1,0.4,0.2c0.1,0,0.1,0.2,0.1,0.4c0,0.1-0.1,0.1-0.6,0.2c-0.1,0-0.4,0.6-0.3,0.6
	c0.1,0,0.6-0.2,0.8-0.2c0.1,0.1,0.1,0.3,0.1,0.4c-0.1,0.1-0.2,0-0.4,0c-0.2,0-0.4,0.3-0.1,0.6c0.2,0.2,0.9,0.4,1.4-0.7
	c0.1,0.2,0.2,0.5,0.1,0.8l1.5-1.2c0,0-0.1-0.8,0.5-1.1c0,0-0.2,0.3-0.1,0.5c0.2-0.2,0.4-0.3,0.6-0.3c0,0-0.4,0.5-0.4,0.6
	c0,0,0.6-0.2,0.7,0c0,0-0.6,0.3-0.6,0.4c0,0.1,0.4,0.2,0.6,0.1c0,0-0.1,0.4-0.8,0.3c-0.4,0.6-0.9,1.1-1.5,1.5
	c-0.2,0.2,0,0.5,0.6,0.3c0.2-0.1,0.3-0.2,0.4-0.3c0,0,0.5,1-1.1,1.1c0.4,0.4,0.8,0.8,1.1,1.2C38,54.3,38.1,54.1,38.1,54 M64.7,58.6
	c0,0.1,0,0.2-0.1,0.2c-0.1,0-0.1,0.1-0.2,0.1c-0.1,0.1-0.1,0.1,0,0.1c0.2,0,0.4-0.3,0.4-0.4c0-0.1,0.2-0.2,0.3-0.2
	c0.1,0,0-0.2,0-0.2l-0.2,0c0-0.1,0-0.2-0.1-0.3c0.3,0,0.6,0,0.8-0.2c0-0.1,0.2-0.2,0.2-0.2c0-0.1-0.1-0.1-0.1-0.2
	c-0.2-0.1-0.5-0.1-0.7,0c-0.4,0.1-0.6,0-0.6-0.1c0,0,0-0.1,0-0.1c0.1,0.1,0.3,0,0.3,0c0.1-0.1,0.1-0.2,0-0.2
	c-0.3-0.1-0.4,0.1-0.4,0.1c-0.1,0.2-0.1,0.3,0,0.3c0.2,0.2,0.5,0.2,0.8,0.1c0.2-0.1,0.4-0.1,0.6,0c0,0,0,0.1,0,0.2
	c0,0-0.1,0.1-0.1,0.1c-0.1,0.2-0.6,0.2-0.9,0.2c-0.3-0.1-0.5,0-0.7,0.2c-0.2,0.1-0.3,0.2-0.4,0.1c-0.2-0.1,0.2-0.5,0.2-0.5
	c0.1-0.1,0-0.1-0.1-0.1c-0.4,0.1-0.4-0.1-0.4-0.2c-0.1-0.1-0.1,0-0.1,0c-0.1,0.1,0.1,0.5-0.2,0.6c-0.3,0.1-0.7-0.1-0.8-0.4l-0.1,0
	c0.1,0.2,0.2,0.4,0.4,0.5c0.2,0.1,0.2,0.1,0.2,0.2l0.1,0.1c0,0-0.1,0.3-0.1,0.3c0,0.1-0.4,0.4-0.4,0.4c-0.1,0-0.4,0.1-0.3,0.1
	c0.1,0.2,0.5,0,0.5,0c0.2-0.2,0.4-0.5,0.7-0.6c0,0,0.6-0.2,0.8-0.2c0.2-0.1,0.1,0,0.1,0c-0.1,0.2-0.2,0.4-0.3,0.6
	c-0.2,0-0.4,0.2-0.3,0.2c0.2,0.1,0.4-0.1,0.4-0.1c0-0.1,0.2-0.3,0.2-0.3l0.3-0.6l0.2-0.1c0,0.1,0.1,0.2,0.2,0.3
	C64.8,58.5,64.7,58.6,64.7,58.6 M64.9,48.7l0.2-0.4l-0.5,0.2l0-0.4l-0.3,0.3L64,48.2l0,0.4L64.9,48.7z M58.5,48.9
	c-0.5-0.1-0.5-0.2-0.4-0.3c0.1-0.1,0-0.2-0.1-0.2c-0.1,0-0.2,0-0.2,0.2C57.8,49,58.5,48.9,58.5,48.9 M57.5,47.8h-0.2v0.5h0.2V47.8z
	 M60.5,47.8h-0.2v0.5h0.2V47.8z M56.9,49.9h-0.2v0.5h0.2V49.9z M56.7,52.5h-0.2V53h0.2V52.5z M58.5,53.1h-0.2v0.5h0.2V53.1z
	 M52.4,53.6c0-0.1,0-0.4-0.2-0.4c-0.2,0-0.4,0-0.5,1.1c0.2,0,0.4,0,0.6,0C52.3,54.1,52.4,53.9,52.4,53.6 M52.8,49
	c-0.2,0-0.4,0.2-0.5,0.6c-0.1,0.4-0.1,0.7-0.1,0.9c0.1,0,0.1,0,0.2,0c0.1-0.4,0.3-0.7,0.6-1c0,0,0,0,0-0.1C53,49.1,52.9,49,52.8,49
	 M51.6,50.5c0.1,0,0.1,0,0.2,0c0-0.3,0-0.7-0.1-1c-0.1-0.4-0.3-0.5-0.4-0.5C51.1,49,51,49,50.8,49.3C51.1,49.6,51.4,50,51.6,50.5
	L51.6,50.5 M54.5,52.5c0-0.4,0-0.8,0-1.2c-0.1,0.2-0.1,0.4-0.2,0.6C54.3,52,54.4,52.2,54.5,52.5 M52.3,56.8c0,0,0.1,0.1,0.1,0.1
	c0,0,0.1,0.1,0.1,0.2c0.1,0.6,0.1,1.1,0,1.7c0.4-0.6,0.5-1.3,0.3-1.9c-0.1-0.1-0.1-0.2-0.2-0.4C52.6,56.4,52.2,56.8,52.3,56.8
	 M53,51.9c0.2-0.3,0.1-0.7-0.2-1c0-0.1,0-0.1,0-0.2c0.1-0.5,0.3-0.9,0.7-1.1c0.1-0.1,0.3-0.1,0.4,0c0.2,0.3,0.2,0.7,0.1,1.1
	c0-0.1-0.1-0.3-0.1-0.4c-0.1-0.2-0.3-0.3-0.5-0.2c-0.2,0.1-0.3,0.3-0.2,0.5c0.3,0.7,0.5,1.4,0.7,2.2l0.1,0.4
	c0.1,1.1-0.1,2.1-0.6,3.1c-0.5,1.4-0.7,2.9-0.6,4.4c0.2-1.5,0.6-3,1.1-4.5c0.1-0.3,0.3-0.6,0.4-0.9c-0.1,2.1-0.4,4.3-0.9,6.4
	c-0.2,0.6-0.5,1.2-0.9,1.8c-0.2,0.2-0.3,0.4-0.5,0.6l0,0l0,0c0,0,0,0-0.1,0l0,0c-0.7-0.5-1.3-1-1.9-1.6c-0.3-0.3-0.5-0.7-0.7-1
	c-1-1.7-1.3-3-1.4-5.9c0-0.6,0-1.3,0-2.2c0-0.3,0-0.6,0-0.8c0-1.3,0-2.5,0.2-3.8c0.6-0.2,1.2-0.4,1.8-0.5c0.7-0.2,1.5-0.2,2.2-0.2
	c0,0.1,0,0.1,0,0.2c0.1,0.1,0.2,0.2,0.3,0.2c-0.2,0.1-0.4,0.3-0.5,0.5c-0.1-0.3-0.4-0.5-0.6-0.6c-0.4-0.1-0.8,0-1.1,0.6
	c-0.4-0.2-0.8-0.1-1.1,0.1c-0.5,0.4-0.6,1.5,0.2,3c-0.1,0.2-0.1,0.4-0.2,0.6c-0.6,2.1,0.3,3.3,0.9,4.4c0.5,1.3,0.9,2.5,1.3,3.8
	c0-1.4-0.2-2.8-0.8-4.2c-0.4-0.9-1.3-2.2-0.8-3.8c0.2-0.6,0.5-1.4,0.7-2.1c0-0.4-0.5-0.9-0.7-0.4c0,0.2-0.1,0.4-0.2,0.7
	c-0.3-0.8-0.4-1.4-0.1-1.6c0.2-0.1,0.5-0.1,0.7,0c0.3,0.3,0.6,0.6,0.7,1.1h0c0.1,0.3,0.1,0.6,0,0.9c-0.1,0.5-0.4,0.7,0,1
	c0.2,0.1,0.4,0.2,0.5,0.3c0,0-1,2.2,0.5,2.4c0.3,0.1,0.7-0.1,0.7-0.3c-0.1-0.4,0-0.8,0.2-1.1c0.1-0.2,0.4-0.8,0.3-1.1
	C53,52.5,53,52.3,53,52.1 M51.9,57c0.1-0.2,0.5-0.7,0.5-0.7c0.5-0.5,0.9-0.7,1.1-1.3c0.2-0.6,0.2-0.6,0.3-1.3
	c0.2-0.7-0.3-1.4-0.4-0.8c-0.2,0.6-0.2,1.4-0.4,1.9c-0.2,0.4-0.5,0.8-0.8,1.1c-0.1,0.1-0.1,0.1-0.1,0.2c0,0-0.1-0.1-0.1-0.1
	c-0.9-0.4-1.3-0.6-1.4-1.4c-0.2-0.9,0.1-1.1-0.3-2c-0.1-0.2-0.2,0.1-0.3,0.4c0,0.2,0,0.3,0,0.5c0,0.6,0,1.1,0.1,1.7
	c0.3,0.8,0.8,1,1.7,1.4c-0.2,0.2-0.3,0.5-0.3,0.8c0,0.6,0.1,1.2,0.4,1.7C51.7,58.2,51.7,57.6,51.9,57 M54.3,49.3
	C54.3,49.3,54.3,49.4,54.3,49.3c0,0,0-0.1,0-0.2c-0.1-0.3-0.3-0.6-0.6-0.7c-0.2,0.1-0.3,0.1-0.5,0.1c0.1,0.2,0.2,0.4,0.2,0.6
	C53.8,49.1,54.1,49.1,54.3,49.3 M51.8,52.2c0-0.1,0-0.1-0.1-0.2c0.1,0,0.2-0.1,0.2-0.1c0,0,0-0.1,0-0.1c0,0-0.1,0-0.1,0c0,0,0,0,0,0
	c-0.2,0.2-0.5,0.3-0.8,0.3c0,0-0.1,0.1-0.1,0.1c0,0,0,0.1,0.1,0.1c0,0,0,0,0,0c0.1,0,0.3-0.1,0.4-0.1c0,0,0,0.1,0,0.1
	c0,0.1,0.1,0.2,0.2,0.2C51.7,52.4,51.8,52.3,51.8,52.2 M53,51.9c-0.2-0.1-0.5-0.1-0.7-0.3c0,0-0.1,0-0.1,0c0,0,0,0,0,0
	c0,0,0,0.1,0,0.1c0.1,0,0.1,0.1,0.2,0.1c-0.1,0-0.1,0.1-0.1,0.2c0,0.1,0.1,0.2,0.1,0.2c0.1,0,0.1-0.1,0.1-0.2c0-0.1,0-0.1,0-0.2
	c0.1,0,0.2,0.1,0.4,0.1 M52.2,53.2c-0.2,0-0.4,0-0.5,1.1c0.2,0,0.4,0,0.6,0c0-0.2,0-0.5,0.1-0.7C52.4,53.5,52.4,53.2,52.2,53.2
	 M52.1,52.8c0,0-0.1,0-0.1,0c-0.1,0-0.2,0.1-0.1,0.2c0.1,0.1,0.1-0.1,0.2,0c0,0,0.1,0,0.2,0c0.1,0,0.1,0,0.2,0c0.1,0,0.1-0.1,0-0.2
	c-0.1,0-0.1,0-0.2,0C52.2,52.8,52.2,52.8,52.1,52.8 M37.8,63.2L37.8,63.2L37.8,63.2C37.8,63.2,37.8,63.2,37.8,63.2 M31.2,63.2
	L31.2,63.2L31.2,63.2C31.3,63.2,31.2,63.2,31.2,63.2 M42.8,73.9c0,2.9,2.4,5.3,5.3,5.3c2.9,0,5.3-2.4,5.3-5.3c0,0,0,0,0,0v-7.3H42.8
	V73.9 M65.6,68.2c-3.4,5.4-8.5,9.2-14.3,10.2c-1.9,1.4-4.5,1.4-6.4,0c-5.8-1-10.9-4.8-14.2-10.2h12v-1.7h11v1.7H65.6 M51.7,74.2
	c0-0.2,0.1-0.7-0.4-0.8c-0.6-0.1-0.9,0.6-0.9,0.6c0,0.1-0.1,0.1-0.2,0.2c-0.1,0-0.8,0.1-0.8,0.7c0,0.5,0.5,0.6,0.7,0.6
	c0.3,0,0.5,0,0.8-0.1c0.1,0,0.3,0,0.4-0.1c0.1-0.1,0.1-0.3,0.2-0.4C51.5,74.7,51.7,74.4,51.7,74.2 M52.1,75.2c0.1,0,0.2,0.2,0.2,0.3
	c0,0.1-0.2,0.2-0.3,0.2c-0.2,0-0.3,0-0.5,0c0,0.2-0.1,0.3-0.1,0.5c0,0.1-0.1,0.2-0.3,0.2c-0.1,0-0.2-0.1-0.2-0.3c0,0,0,0,0,0
	c0-0.1,0-0.2,0-0.3c0,0,0,0,0,0c-0.3,0.1-0.6,0.2-1,0.1c-0.7-0.1-1.2-0.5-1.2-1.1c0.1-0.5,0.4-0.9,0.9-1.1L48,71.6l-1.7,2.2
	c0.5,0.1,0.9,0.5,0.9,1.1c0,0.6-0.4,1.1-1.1,1.1c-0.3,0-0.7,0-1-0.1c0,0,0,0,0,0c0,0.1,0,0.2,0,0.3c0,0.1-0.1,0.3-0.2,0.3
	c-0.1,0-0.3-0.1-0.3-0.2c0-0.2,0-0.3-0.1-0.5c-0.2,0-0.3,0-0.5,0c-0.1,0-0.3-0.1-0.3-0.2c0-0.1,0.1-0.3,0.2-0.3l0,0
	c0.1,0,0.2,0,0.3,0c0,0,0,0,0,0c-0.2-0.3-0.3-0.6-0.4-0.9c-0.2-0.6,0.1-1.2,0.7-1.4c0,0,0.1,0,0.1,0c0.5-0.1,1,0.2,1.2,0.6l1.8-2.3
	l-1-1.3l0,0l-1.8,1.4l-0.3-0.4l0.9-0.7l-0.3-0.4l-0.9,0.7l-0.7-0.9l0.4-0.3l0.3,0.4l0.4-0.4l-0.3-0.4l0.4-0.3l0.7,0.9l0.4-0.3
	L45.3,68l0.4-0.3l2.4,3l2.4-3l0.4,0.3l-0.7,0.9l0.4,0.3l0.7-0.9l0.4,0.3l-0.3,0.4l0.4,0.4l0.3-0.4l0.4,0.3l-0.7,0.9L51,69.6
	l-0.3,0.4l0.9,0.7l-0.3,0.4l-1.8-1.4l0,0l-1,1.3l1.8,2.3c0.2-0.5,0.7-0.7,1.2-0.6c0.6,0.1,1,0.7,0.8,1.3c0,0,0,0.1,0,0.1
	c-0.1,0.3-0.2,0.6-0.4,0.9c0,0,0,0,0,0C51.9,75.2,52,75.2,52.1,75.2 M46.7,74.9c0-0.6-0.8-0.7-0.8-0.7c-0.1,0-0.2-0.1-0.2-0.2
	c0,0-0.3-0.8-0.9-0.6c-0.5,0.1-0.4,0.6-0.4,0.8c0,0.3,0.2,0.5,0.3,0.7c0.1,0.1,0.1,0.3,0.2,0.4c0.1,0,0.3,0,0.4,0.1
	c0.3,0.1,0.5,0.1,0.8,0.1C46.3,75.5,46.8,75.4,46.7,74.9 M44.9,81.1c-0.1-0.1-0.2-0.1-0.3-0.1c-0.2,0-0.6,0-0.7,0.6
	c-0.1,0.3,0.1,0.6,0.4,0.7c0,0,0,0,0.1,0c0.3,0,0.3,0,0.3-0.2L44.9,81.1z M45,80.4c0.1-0.5,0-0.5-0.4-0.6l0-0.2l1.6,0.3l0,0.2
	c-0.4,0-0.4,0-0.5,0.5L45.4,82c-0.1,0.5,0,0.5,0.3,0.6l0,0.2l-1.6-0.3c-0.6-0.1-1-0.5-0.9-1c0.1-0.5,0.6-0.8,1.1-0.7
	c0.1,0,0.2,0,0.3,0l0.3,0.2L45,80.4z M41.2,80.2L41,80.1c-0.1-0.1-0.3-0.1-0.4-0.1c-0.2,0-0.4,0.2-0.4,0.4c-0.1,0.3,0,0.6,0.3,0.8
	c0,0,0.1,0,0.1,0c0.3,0.1,0.3,0.1,0.3-0.1L41.2,80.2z M41.5,79.5c0.2-0.4,0.1-0.5-0.2-0.7l0.1-0.2l1.5,0.5l-0.1,0.2
	c-0.4-0.1-0.4-0.1-0.6,0.3l-0.5,1.4c-0.2,0.5-0.1,0.5,0.2,0.6l-0.1,0.2l-1.5-0.6c-0.2-0.1-0.5-0.2-0.6-0.4c-0.1-0.2-0.2-0.5-0.1-0.7
	c0.1-0.3,0.5-0.5,0.8-0.5c0-0.2-0.1-0.5-0.2-0.8c0-0.2-0.1-0.4-0.2-0.5c-0.1-0.1-0.1-0.2-0.2-0.3l0.1-0.2l0.2,0.1
	c0.5,0.2,0.6,0.4,0.7,0.7c0.1,0.2,0.1,0.6,0.2,0.8c0,0.2,0.1,0.2,0.2,0.3l0.1,0L41.5,79.5z M37.9,78.4L37.2,78l-0.2,1l0,0L37.9,78.4
	z M37.7,77.2l-0.1-0.1c-0.2-0.1-0.2-0.1-0.3,0.2l-0.1,0.4l0.8,0.5c0.1,0,0.2-0.2,0.4-0.3c0.2-0.1,0.1-0.2,0-0.3l-0.1-0.1l0.1-0.2
	l1,0.6l-0.1,0.2c-0.3-0.1-0.4-0.2-0.7,0.1l-2,1.5l-0.2-0.1l0.4-2.6c0.1-0.2,0-0.5-0.3-0.6l0.1-0.2l1.3,0.8L37.7,77.2z M35.2,76.1
	c0.3-0.4,0.4-0.4,0.7-0.1l0.1-0.1l-1.9-1.6c-0.1,0.1-0.5,0.4-0.6,0.5l0.1,0.1c0.1-0.1,0.3-0.2,0.5-0.2c0.2,0,0.4,0.1,0.5,0.2
	c0.1,0.1,0.2,0.2,0.3,0.3c0,0.1,0,0.2-0.2,0.4l-0.4,0.5l-0.3-0.3c-0.3-0.2-0.3-0.3-0.1-0.6l-0.1-0.1L33.1,76l0.1,0.1
	c0.3-0.2,0.3-0.2,0.6,0l0.3,0.3L33.5,77c-0.1,0.1-0.1,0.1-0.2,0l-0.2-0.2c-0.2-0.2-0.3-0.3-0.3-0.4c0-0.2,0.1-0.3,0.1-0.4l-0.2-0.1
	c-0.2,0.3-0.4,0.5-0.4,0.6l1.8,1.5l0.1-0.1c-0.3-0.3-0.3-0.3,0-0.7L35.2,76.1z M32.6,74.1c0.2-0.3,0.4-0.6,0.5-0.7
	c-0.1-0.3-0.2-0.6-0.4-0.8c-0.5-0.5-1.1-0.7-1.5-0.3c-0.3,0.4-0.4,0.9-0.1,1.3l0.1,0.2c0.1,0.2,0.1,0.5-0.1,0.6
	c-0.2,0.2-0.4,0.1-0.6,0c0,0,0,0,0,0c-0.2-0.3-0.2-0.7,0-0.9l-0.2-0.1c-0.2,0.3-0.4,0.4-0.5,0.6c0.1,0.2,0.2,0.4,0.4,0.6
	c0.5,0.6,1.1,0.6,1.5,0.2c0.3-0.3,0.2-0.7,0.1-1.1l-0.1-0.2c-0.1-0.2-0.1-0.6,0.1-0.8c0.2-0.2,0.5-0.1,0.6,0.1c0,0,0,0,0,0
	c0.2,0.4,0.2,0.8,0,1.2L32.6,74.1z M28.9,71.6c-0.4,0.3-0.4,0.3-0.7,0L28,71.6l0.9,1.3l0.1-0.1c-0.2-0.3-0.2-0.4,0.2-0.7l1.2-0.9
	c0.4-0.3,0.4-0.3,0.7,0l0.1-0.1l-0.9-1.3L30.2,70c0.2,0.3,0.2,0.4-0.2,0.7L28.9,71.6z M28.6,68.4c0.3-0.2,0.4-0.3,0.2-0.5
	c-0.3-0.5-0.9-0.7-1.4-0.4c-0.1,0-0.1,0.1-0.2,0.1c-0.7,0.4-0.9,0.9-0.5,1.5c0.1,0.2,0.1,0.2,0.2,0.3c0,0,0.1,0,0.2-0.1L28.6,68.4z
	 M26.5,69.1c-0.3-0.4-0.4-0.9-0.3-1.4c0.1-0.3,0.3-0.6,0.6-0.8c1-0.5,1.8,0,2.3,0.9l0.7,1.2l-0.2,0.1c-0.2-0.4-0.3-0.4-0.7-0.1
	l-1.3,0.7c-0.4,0.2-0.4,0.3-0.3,0.6l-0.2,0.1L26.5,69.1z M25.3,65c-0.4,0.2-0.5,0.2-0.7-0.2l-0.2,0.1l0.6,1.5l0.2-0.1
	c-0.1-0.4-0.1-0.4,0.3-0.6l1.4-0.6c0.4-0.2,0.5-0.2,0.7,0.2l0.2-0.1l-0.6-1.5L27,63.9c0.1,0.4,0.1,0.4-0.3,0.6L25.3,65z M24.1,63.8
	l0.2-0.1c-0.1-0.4-0.1-0.5,0.4-0.6l0.9-0.3c0.4-0.1,0.7-0.3,0.9-0.6c0.1-0.3,0.1-0.6,0-0.9c-0.1-0.3-0.3-0.6-0.6-0.8
	c-0.4-0.2-0.8-0.2-1.1,0l-0.3,0.1c-0.3,0.1-0.5,0.1-0.8,0.2c-0.2,0-0.3-0.1-0.3-0.3l-0.2,0l0.4,1.2l0.2-0.1c-0.1-0.3,0-0.4,0.1-0.5
	c0.2-0.1,0.5-0.2,0.8-0.3l0.3-0.1c0.7-0.2,1.2-0.1,1.3,0.4c0.1,0.5-0.2,0.9-0.9,1.1l-0.8,0.2c-0.5,0.1-0.5,0.1-0.6-0.3l-0.2,0.1
	L24.1,63.8z M22.5,56.4l2,0.6l-1.8,1.2l0.1,1.1l0.2,0c0-0.4,0-0.5,0.5-0.5l1-0.1c0.2,0,0.5,0,0.7,0c0.2,0,0.3,0.1,0.3,0.4l0.2,0
	l-0.2-1.2l-0.2,0c0,0.3,0,0.5-0.2,0.5c-0.3,0.1-0.5,0.1-0.8,0.1l-1,0.1l0,0l2-1.2l0-0.2L23,56.3l0,0l1.7-0.3c0.4-0.1,0.5,0,0.5,0.4
	l0.2,0l-0.2-1.6l-0.2,0c0,0.5,0,0.5-0.4,0.5L23,55.6c-0.4,0.1-0.5,0-0.5-0.4l-0.2,0L22.5,56.4z M23.6,52.5c-0.4,0-0.7,0.3-0.7,0.7
	c0,0.4,0.3,0.7,0.7,0.7c0.4,0,0.7-0.3,0.7-0.7C24.3,52.8,24,52.5,23.6,52.5C23.6,52.5,23.6,52.5,23.6,52.5 M24.1,50.5l0.1-0.7
	L23.2,50v0L24.1,50.5z M25.1,49.8l0-0.1c0-0.2,0-0.2-0.3-0.1l-0.4,0.1l-0.1,0.9c0.1,0,0.3,0.1,0.5,0.2c0.2,0.1,0.2,0,0.3-0.1l0-0.1
	l0.2,0l-0.1,1.2l-0.2,0c0-0.3,0-0.4-0.4-0.6l-2.2-1.1l0-0.2l2.5-0.8c0.4-0.1,0.4-0.3,0.4-0.5l0.2,0l-0.1,1.5L25.1,49.8z M24,44.9
	c-0.3,0-0.6,0-0.8-0.1c-0.1,0.3-0.2,0.6-0.3,0.9c-0.3,0.9,0.2,1.8,1.1,2.1c0,0,0.1,0,0.1,0c0.8,0.1,1.6-0.4,1.7-1.2
	c0-0.1,0-0.1,0-0.2c0.1-0.3,0.1-0.7,0-1c-0.3-0.1-0.5-0.3-0.8-0.4l0,0.2c0.4,0.3,0.7,0.6,0.6,1.1c-0.1,0.6-0.7,1-1.5,0.8
	c-0.7-0.1-1.1-0.6-1-1.2c0.1-0.4,0.4-0.7,0.9-0.7L24,44.9z M25.3,43.4l0.2-0.7l-1,0.1l0,0L25.3,43.4z M26.4,42.9l0-0.1
	c0-0.2,0-0.2-0.3-0.2l-0.4,0l-0.3,0.9c0.1,0,0.2,0.2,0.4,0.3c0.2,0.1,0.2,0.1,0.3-0.1l0.1-0.1l0.2,0.1l-0.3,1.1l-0.2-0.1
	c0-0.3,0.1-0.4-0.3-0.7l-1.9-1.6l0-0.2l2.6-0.2c0.3,0,0.5-0.2,0.5-0.4l0.2,0.1L26.6,43L26.4,42.9z M27,39.8c0.3,0.2,0.5,0.1,0.6-0.1
	c0.3-0.6,0-1.2-0.7-1.5c-0.8-0.3-1.3-0.1-1.5,0.5c-0.1,0.2-0.1,0.3-0.1,0.3c0,0,0.1,0.1,0.2,0.1L27,39.8z M25.2,38.5
	c0.2-0.5,0.5-0.8,0.9-1.1c0.3-0.1,0.7-0.1,1,0c1,0.5,1.1,1.4,0.6,2.4l-0.6,1.3L27,41c0.1-0.4,0.1-0.4-0.3-0.6l-1.3-0.6
	c-0.4-0.2-0.5-0.2-0.7,0.2l-0.2-0.1L25.2,38.5z M28.5,36.9c0.4,0.2,0.4,0.3,0.2,0.7l0.2,0.1l1.3-2.2c-0.1-0.1-0.5-0.4-0.6-0.6
	l-0.1,0.2c0.1,0.1,0.2,0.3,0.3,0.4c0,0.2,0,0.4-0.2,0.5c-0.1,0.1-0.2,0.3-0.3,0.4c-0.1,0.1-0.2,0-0.4-0.1l-0.6-0.3l0.2-0.4
	c0.2-0.3,0.2-0.3,0.5-0.2l0.1-0.2l-0.8-0.5l-0.1,0.2c0.3,0.2,0.3,0.2,0.1,0.6L28,35.8l-0.7-0.5c-0.1-0.1-0.1-0.1,0-0.2l0.1-0.2
	c0.2-0.3,0.3-0.4,0.4-0.4c0.2,0,0.3,0,0.5,0.1l0.1-0.2c-0.3-0.2-0.6-0.3-0.7-0.4l-1.2,2l0.2,0.1c0.2-0.3,0.3-0.3,0.7-0.1L28.5,36.9z
	 M28.5,36.9c0.4,0.2,0.4,0.3,0.2,0.7l0.2,0.1l1.3-2.2c-0.1-0.1-0.5-0.4-0.6-0.6l-0.1,0.2c0.1,0.1,0.2,0.3,0.3,0.4
	c0,0.2,0,0.4-0.2,0.5c-0.1,0.1-0.2,0.3-0.3,0.4c-0.1,0.1-0.2,0-0.4-0.1l-0.6-0.3l0.2-0.4c0.2-0.3,0.2-0.3,0.5-0.2l0.1-0.2l-0.8-0.5
	l-0.1,0.2c0.3,0.2,0.3,0.2,0.1,0.6L28,35.8l-0.7-0.5c-0.1-0.1-0.1-0.1,0-0.2l0.1-0.2c0.2-0.3,0.3-0.4,0.4-0.4c0.2,0,0.3,0,0.5,0.1
	l0.1-0.2c-0.3-0.2-0.6-0.3-0.7-0.4l-1.2,2l0.2,0.1c0.2-0.3,0.3-0.3,0.7-0.1L28.5,36.9z M30.2,30.7l0.9,1.9L29,32.1l-0.7,0.8l0.1,0.1
	c0.3-0.3,0.3-0.4,0.7,0l0.7,0.7c0.2,0.2,0.4,0.3,0.5,0.5c0.1,0.1,0.1,0.3-0.1,0.5l0.1,0.1l0.8-0.9l-0.1-0.1
	c-0.2,0.2-0.3,0.3-0.5,0.2c-0.2-0.2-0.4-0.3-0.6-0.5l-0.7-0.7l0,0l2.3,0.7l0.1-0.1L30.6,31l0,0L32,32c0.3,0.3,0.3,0.3,0.1,0.7
	l0.1,0.1l1-1.2l-0.1-0.1c-0.3,0.3-0.3,0.3-0.7,0.1l-1.2-1c-0.3-0.3-0.3-0.3-0.1-0.7l-0.1-0.1L30.2,30.7z M33.1,28.8
	c-0.3-0.4-0.3-0.4,0-0.7L32.9,28l-1.2,1.1l0.1,0.1c0.3-0.3,0.4-0.3,0.7,0.1l1,1.1c0.3,0.4,0.3,0.4,0,0.7l0.1,0.1l1.2-1.1L34.7,30
	c-0.3,0.3-0.4,0.3-0.7-0.1L33.1,28.8z M35.4,28.2l0.6-0.4l-0.8-0.6l0,0L35.4,28.2z M36.6,28.6L36.6,28.6c0.2-0.2,0.2-0.3,0-0.4
	L36.2,28l-0.7,0.5c0,0.1,0.1,0.3,0.1,0.5c0.1,0.2,0.1,0.2,0.3,0.1l0.1-0.1l0.1,0.1l-1,0.7l-0.1-0.1c0.2-0.2,0.3-0.3,0.2-0.7
	l-0.5-2.4l0.2-0.2l2.2,1.4c0.2,0.2,0.5,0.2,0.7,0l0.1,0.2l-1.2,0.8L36.6,28.6z M38.9,25.7c-0.2-0.4-0.6-0.5-1-0.3
	c-0.3,0.2-0.5,0.6-0.3,1c0.2,0.4,0.6,0.5,1,0.3C38.9,26.5,39.1,26,38.9,25.7C38.9,25.7,38.9,25.7,38.9,25.7 M42.9,25.8
	c0-0.2-0.1-0.6-0.1-0.9l-0.2,0c0,0.2,0,0.4-0.1,0.6c-0.1,0.1-0.2,0.2-0.4,0.3c-0.1,0.1-0.3,0.1-0.4,0.1c-0.1,0-0.2-0.1-0.3-0.4
	L41,24.2c-0.2-0.5-0.1-0.5,0.3-0.7l-0.1-0.2l-1.5,0.5l0.1,0.2c0.4-0.1,0.4-0.1,0.6,0.4l0.5,1.4c0.2,0.5,0.1,0.5-0.3,0.7l0.1,0.2
	L42.9,25.8z M42.8,22.8l0,0.2c0.4,0,0.4,0,0.5,0.5l0.2,1c0,0.4,0.2,0.7,0.5,1c0.3,0.1,0.6,0.2,0.9,0.1c0.3,0,0.7-0.2,0.9-0.5
	c0.2-0.3,0.3-0.7,0.2-1.1l-0.1-0.3c-0.1-0.3-0.1-0.5-0.1-0.8c0-0.2,0.1-0.3,0.4-0.3l0-0.2l-1.2,0.2l0,0.2c0.3,0,0.4,0,0.5,0.2
	c0.1,0.3,0.1,0.5,0.2,0.8l0,0.3c0.1,0.7,0,1.2-0.6,1.3c-0.5,0.1-0.8-0.3-0.9-1L44,23.3c-0.1-0.5,0-0.5,0.3-0.6l0-0.2L42.8,22.8z
	 M49.9,23.2c0-0.4,0-0.7-0.1-0.8c-0.3-0.1-0.6-0.1-0.9-0.2C48,22,47.2,22.7,47,23.6c0,0,0,0.1,0,0.1c0,0.9,0.7,1.5,1.8,1.5
	c0.4,0,0.7-0.1,1.1-0.2c0-0.1,0-0.3,0-0.4l0-0.3c0-0.3,0-0.3,0.3-0.4l0-0.2l-1.5,0l0,0.2c0.5,0,0.5,0.1,0.5,0.4l0,0.4
	c0,0.3-0.2,0.3-0.3,0.3c-0.8,0-1.1-0.7-1.1-1.4c0-0.9,0.5-1.2,1-1.2c0.5,0,0.9,0.3,0.9,0.8L49.9,23.2z M52,24.8
	c-0.1,0.4-0.1,0.5,0.3,0.5c0.7,0.2,1.1-0.2,1.3-1c0.2-0.8-0.1-1.3-0.8-1.4c-0.2,0-0.3-0.1-0.3,0c0,0-0.1,0.1-0.1,0.2L52,24.8z
	 M52.9,22.8c0.5,0.1,0.9,0.3,1.2,0.7c0.2,0.3,0.3,0.7,0.2,1c-0.2,1.1-1.2,1.3-2.2,1.1l-1.4-0.3l0-0.2c0.4,0.1,0.5,0,0.6-0.4l0.3-1.4
	c0.1-0.5,0.1-0.5-0.3-0.6l0-0.2L52.9,22.8z M55.5,23.4l-0.1,0.2c0.4,0.2,0.4,0.2,0.2,0.7l-0.4,0.9c-0.2,0.3-0.2,0.7-0.1,1.1
	c0.2,0.3,0.4,0.5,0.7,0.6c0.3,0.2,0.7,0.2,1,0.1c0.4-0.2,0.6-0.5,0.7-0.9l0.1-0.3c0.1-0.3,0.2-0.5,0.4-0.7c0.1-0.1,0.2-0.1,0.5-0.1
	l0.1-0.2l-1.2-0.5l-0.1,0.2c0.3,0.1,0.4,0.2,0.3,0.4c-0.1,0.3-0.2,0.5-0.3,0.8l-0.1,0.3c-0.3,0.6-0.7,1-1.2,0.8
	c-0.5-0.2-0.5-0.7-0.3-1.4l0.3-0.8c0.2-0.4,0.2-0.5,0.6-0.3l0.1-0.2L55.5,23.4z M61.3,28c0.1-0.2,0.3-0.5,0.5-0.7
	c0.1-0.1,0.3-0.1,0.5,0l0.1-0.2l-1.1-0.7l-0.1,0.2c0.3,0.2,0.3,0.3,0.3,0.5c-0.1,0.3-0.3,0.5-0.4,0.7l-0.4,0.6l0,0l-0.4-2.6
	l-0.8-0.6l-0.1,0.1c0.4,0.3,0.4,0.4,0.1,0.8L59,26.9c-0.1,0.2-0.3,0.5-0.5,0.7c-0.1,0.1-0.3,0.1-0.5,0l-0.1,0.2l1.1,0.7l0.1-0.2
	c-0.3-0.2-0.3-0.3-0.3-0.5c0.1-0.2,0.3-0.5,0.4-0.7l0.5-0.7l0,0l0.4,2.9l0.3,0.2L61.3,28z M62.7,29.3c-0.5,0.6-0.7,1.3-0.3,1.6
	c0.3,0.3,0.8,0.3,1.4-0.3c0.5-0.5,0.7-1.2,0.3-1.6C63.8,28.7,63.2,28.7,62.7,29.3 M64.3,28.8c0.6,0.5,0.8,1.5,0.2,2.1
	c0,0,0,0.1-0.1,0.1c-0.6,0.6-1.5,0.7-2.2,0.1c0,0-0.1-0.1-0.1-0.1c-0.7-0.5-0.8-1.5-0.2-2.1c0,0,0,0,0-0.1
	C62.6,28.2,63.6,28.2,64.3,28.8C64.3,28.8,64.3,28.8,64.3,28.8 M66.2,32.9c0.3-0.3,0.3-0.7,0.1-1c-0.3-0.3-0.7-0.3-1-0.1
	c-0.3,0.3-0.3,0.7-0.1,1C65.4,33.1,65.9,33.1,66.2,32.9 M67.3,34.4l0.1,0.2c0.1,0.3,0.4,0.4,0.7,0.2c0.3-0.1,0.4-0.4,0.2-0.7
	c0,0,0-0.1-0.1-0.1c-0.1-0.2-0.2-0.2-0.3-0.1L67.3,34.4z M67.2,34.5l-0.6,0.4c-0.4,0.2-0.3,0.4-0.2,0.6c0.2,0.3,0.5,0.3,0.7,0.2
	c0,0,0,0,0,0c0.3-0.2,0.4-0.6,0.2-0.9c0,0,0-0.1-0.1-0.1L67.2,34.5z M67.4,33.6c0.4-0.3,0.4-0.3,0.2-0.6l0.2-0.1l0.9,1.4
	c0.3,0.5,0.4,0.9,0,1.2c-0.3,0.1-0.7,0.1-0.9-0.2l0,0c0.2,0.4,0.2,0.8-0.2,1.1c-0.6,0.4-1.1-0.2-1.4-0.7l-0.8-1.2l0.2-0.1
	c0.2,0.3,0.3,0.3,0.7,0.1L67.4,33.6z M68.7,37.6l0.3,0.7l0.7-0.7l0,0L68.7,37.6z M68.1,38.7l0.1,0.1c0.1,0.2,0.2,0.2,0.4-0.1
	l0.3-0.3l-0.4-0.8c-0.1,0-0.3,0-0.5,0.1c-0.2,0-0.2,0.1-0.2,0.3l0.1,0.1l-0.2,0.1l-0.5-1.1l0.2-0.1c0.2,0.2,0.2,0.3,0.7,0.3l2.5-0.1
	l0.2,0.2l-1.7,1.9c-0.2,0.2-0.3,0.5-0.1,0.7l-0.2,0.1L68,38.8L68.1,38.7z M71.7,40.8l0.1,0.2c0.1,0.2,0.1,0.3,0.1,0.5
	c0,0.1-0.1,0.2-0.4,0.3l0.1,0.2c0.2-0.1,0.6-0.3,0.8-0.4l0-0.1c-0.1,0-0.1-0.1-0.2-0.2l-0.7-1.9c-0.1-0.1-0.1-0.2,0-0.3l0-0.1
	c-0.2,0.1-0.5,0.2-0.9,0.3l0.1,0.2c0.2,0,0.3,0,0.5,0c0.1,0,0.2,0.1,0.3,0.5l0.1,0.1l-1.8,0.7C69.2,41,69.2,41,69,40.6l-0.2,0.1
	l0.6,1.5l0.2-0.1c-0.1-0.4-0.1-0.5,0.3-0.6L71.7,40.8z M71,43.6l0.2,0.7l0.8-0.6l0,0L71,43.6z M70.3,44.6l0,0.1
	c0.1,0.2,0.1,0.2,0.4,0l0.3-0.2l-0.2-0.9c-0.1,0-0.3,0-0.5,0c-0.2,0-0.2,0-0.2,0.2l0,0.1l-0.2,0l-0.3-1.1l0.2,0
	c0.1,0.3,0.1,0.4,0.6,0.4l2.4,0.4l0.1,0.2l-2.1,1.6c-0.2,0.1-0.3,0.4-0.2,0.6l-0.2,0l-0.4-1.4L70.3,44.6z M70.6,47.5
	c1,0.2,2.2,0.6,2.4,0.6c0.4,0.1,0.5,0.2,0.6,0.5l0.2,0l-0.2-1.2l-0.2,0l0,0.1c0,0.2-0.1,0.3-0.3,0.2c-0.2,0-1.3-0.2-1.6-0.3l1.4-0.9
	c0.2-0.1,0.3-0.1,0.3,0l0,0.2l0.2,0l-0.2-1.5l-0.2,0c0.1,0.2-0.1,0.5-0.3,0.6l-2.2,1.4L70.6,47.5z M72.1,49.7l0,0.7l0.9-0.4l0,0
	L72.1,49.7z M71.2,50.5l0,0.1c0,0.2,0.1,0.2,0.4,0.1l0.4-0.2l-0.1-0.9c-0.1,0-0.3-0.1-0.5-0.1c-0.2,0-0.2,0-0.3,0.2l0,0.2l-0.2,0
	l-0.1-1.2l0.2,0c0.1,0.3,0.1,0.4,0.5,0.5l2.3,0.8l0.1,0.2l-2.3,1.1c-0.2,0.1-0.4,0.3-0.4,0.6l-0.2,0L71,50.5L71.2,50.5z M72.6,53.9
	c0.4,0,0.7-0.3,0.7-0.7s-0.3-0.7-0.7-0.7c-0.4,0-0.7,0.3-0.7,0.7C71.9,53.6,72.2,53.9,72.6,53.9C72.6,53.9,72.6,53.9,72.6,53.9
	 M70.7,57.3c0.2,0.1,0.6,0.2,0.8,0.3l0-0.2c-0.2-0.1-0.3-0.2-0.5-0.3C71,56.9,71,56.7,71,56.5c0-0.1,0-0.3,0.1-0.4
	c0.1-0.1,0.2-0.1,0.5-0.1l1.4,0.2c0.5,0.1,0.5,0.1,0.5,0.5l0.2,0l0.2-1.6l-0.2,0c-0.1,0.4-0.1,0.4-0.6,0.4l-1.5-0.2
	c-0.5,0-0.5-0.1-0.5-0.5l-0.2,0L70.7,57.3z M72.4,60.1c0.5,0.1,0.5,0.1,0.4,0.5l0.2,0l0.3-1.5l-0.2,0c-0.1,0.4-0.1,0.4-0.6,0.3
	l-1.4-0.3c-0.5-0.1-0.5-0.1-0.4-0.5l-0.2,0L70.2,60l0.2,0c0.1-0.4,0.1-0.4,0.6-0.3L72.4,60.1z M71.1,63L71,63.2
	c-0.1,0.3,0,0.6,0.2,0.7c0.3,0.1,0.6,0,0.7-0.2c0,0,0-0.1,0-0.1c0.1-0.2,0.1-0.3-0.1-0.3L71.1,63z M70.9,62.9l-0.7-0.2
	c-0.4-0.1-0.5,0-0.6,0.2c-0.1,0.3,0,0.6,0.3,0.7c0,0,0,0,0,0c0.4,0.1,0.7-0.1,0.8-0.5L70.9,62.9z M71.8,62.5
	c0.4,0.2,0.5,0.1,0.6-0.2l0.2,0.1l-0.5,1.6c-0.2,0.5-0.5,0.9-0.9,0.7c-0.3-0.1-0.5-0.5-0.4-0.8l0,0c-0.1,0.4-0.6,0.6-1,0.5
	c-0.6-0.2-0.6-1-0.4-1.5l0.5-1.4l0.2,0.1c-0.1,0.4-0.1,0.4,0.4,0.6L71.8,62.5z M68.8,66.1c-0.4-0.2-0.4-0.3-0.3-0.7l-0.2-0.1
	l-1.1,2.3c0.1,0.1,0.5,0.4,0.6,0.5L68,68c-0.1-0.1-0.2-0.2-0.3-0.4c0-0.2,0-0.4,0.1-0.5c0.1-0.1,0.1-0.3,0.3-0.4
	c0.1-0.1,0.2,0,0.5,0.1l0.6,0.3l-0.2,0.4c-0.2,0.3-0.2,0.3-0.5,0.2l-0.1,0.2l0.9,0.4l0.1-0.2c-0.3-0.2-0.3-0.2-0.1-0.6l0.2-0.4
	l0.8,0.4c0.1,0.1,0.1,0.1,0.1,0.2L70.1,68c-0.1,0.3-0.3,0.4-0.3,0.4c-0.2,0-0.3,0-0.5,0l-0.1,0.2c0.3,0.1,0.6,0.2,0.7,0.3l1.1-2.1
	l-0.2-0.1c-0.2,0.3-0.2,0.4-0.7,0.1L68.8,66.1z M67.1,70.6L67,70.7c-0.1,0.1-0.1,0.3-0.2,0.4c0,0.2,0.1,0.4,0.3,0.5
	c0.2,0.2,0.6,0.2,0.8-0.1c0,0,0,0,0-0.1c0.2-0.2,0.2-0.2,0-0.3L67.1,70.6z M66.5,70.2c-0.4-0.3-0.4-0.3-0.7,0.1l-0.1-0.1l0.9-1.3
	l0.1,0.1c-0.2,0.4-0.2,0.4,0.2,0.7l1.2,0.8c0.4,0.3,0.4,0.3,0.7,0l0.1,0.1L68,71.9c-0.1,0.2-0.3,0.4-0.5,0.5
	c-0.2,0.1-0.5,0.1-0.7-0.1c-0.3-0.2-0.4-0.6-0.2-0.9c-0.2,0-0.5,0-0.8,0c-0.2,0-0.4,0-0.6,0c-0.1,0-0.2,0.1-0.3,0.2l-0.1-0.1
	l0.1-0.2c0.3-0.5,0.6-0.5,0.9-0.5c0.3,0,0.6,0,0.8,0.1c0.2,0,0.2,0,0.3-0.2l0.1-0.1L66.5,70.2z M64.9,75.2l-0.2,0.2
	c-0.2,0.2-0.3,0.3-0.4,0.3c-0.2,0-0.3-0.1-0.5-0.2l-0.1,0.1c0.2,0.2,0.5,0.4,0.7,0.6l0.1-0.1c0-0.1,0-0.2,0.1-0.3l1.4-1.5
	c0.1-0.1,0.2-0.1,0.3-0.1l0.1-0.1c-0.2-0.2-0.4-0.4-0.6-0.7l-0.1,0.1c0.1,0.1,0.2,0.3,0.2,0.4c0,0.1,0,0.2-0.3,0.5l-0.1,0.1L64,73.4
	c-0.3-0.3-0.3-0.4-0.1-0.7l-0.1-0.1l-1.1,1.2l0.1,0.1c0.3-0.3,0.4-0.3,0.7,0L64.9,75.2z M61.8,76.1l-0.6,0.4L62,77l0,0L61.8,76.1z
	 M60.6,75.8L60.6,75.8c-0.2,0.2-0.2,0.3,0,0.4l0.4,0.2l0.7-0.5c0-0.1-0.1-0.3-0.2-0.5c-0.1-0.2-0.1-0.2-0.3-0.1l-0.1,0.1L61,75.2
	l0.9-0.7l0.1,0.1c-0.2,0.2-0.3,0.3-0.2,0.7l0.6,2.4l-0.2,0.2l-2.2-1.3c-0.2-0.2-0.5-0.2-0.7,0l-0.1-0.1l1.2-0.9L60.6,75.8z M58.5,80
	l-0.2,0.1c-0.2,0.1-0.4,0.2-0.5,0.1c-0.1,0-0.2-0.1-0.4-0.3l-0.2,0.1c0.1,0.2,0.4,0.6,0.5,0.8l0.1,0c0-0.1,0-0.1,0.2-0.2l1.8-1
	c0.1-0.1,0.2-0.1,0.3,0l0.1,0c-0.1-0.2-0.2-0.5-0.4-0.8l-0.2,0.1c0.1,0.1,0.1,0.3,0,0.5c0,0.1-0.1,0.2-0.5,0.4l-0.1,0.1L58.1,78
	c-0.2-0.4-0.2-0.5,0.2-0.7l-0.1-0.2l-1.5,0.8l0.1,0.2c0.4-0.2,0.5-0.2,0.7,0.2L58.5,80z M54.7,81.1c0.2,0.5,0.1,0.5-0.2,0.6l0.1,0.2
	l1.5-0.5L56,81.2c-0.4,0.1-0.4,0.1-0.6-0.4l-0.5-1.4c-0.2-0.4-0.1-0.5,0.2-0.6l-0.1-0.2l-1.5,0.5l0.1,0.2c0.4-0.1,0.4-0.1,0.6,0.4
	L54.7,81.1z M52.5,80.4c-0.1-0.3-0.2-0.5-0.3-0.8c-0.3-0.1-0.6-0.1-0.9-0.1c-0.7,0.1-1.1,0.5-1,1.1c0.1,0.5,0.5,0.7,1,0.8l0.2,0
	c0.3,0,0.5,0.2,0.5,0.4c0,0.2-0.1,0.5-0.4,0.5c0,0,0,0,0,0c-0.3,0-0.7-0.2-0.8-0.5l-0.2,0.1c0.1,0.3,0.2,0.5,0.2,0.7
	c0.2,0,0.5,0,0.7,0c0.7-0.1,1.1-0.6,1-1.1c-0.1-0.4-0.5-0.6-0.9-0.7l-0.2,0c-0.3-0.1-0.5-0.2-0.6-0.5c0-0.2,0.1-0.5,0.4-0.5
	c0,0,0,0,0,0c0.4,0,0.8,0.3,1,0.7L52.5,80.4z M47.4,81.5c0,0.4,0.3,0.7,0.7,0.7c0.4,0,0.7-0.3,0.7-0.7c0-0.4-0.3-0.7-0.7-0.7
	C47.7,80.8,47.4,81.1,47.4,81.5 M40,47.6L40,47.6 M67.5,44.5c0.2-0.2,0.4-0.3,0.7-0.2c0,0,0,0,0,0c-0.2-0.2-0.6-0.2-0.9,0
	c-0.2,0.2-0.2,0.6,0,0.9c0,0,0,0,0,0C67.2,44.9,67.3,44.7,67.5,44.5 M64.3,35c3.7,5.1,5.7,11.2,5.6,17.5c0,3.6-0.6,7.2-1.9,10.6
	c0,0.1-0.1,0.2-0.1,0.3l-2.4,0c0.2,0.2,0.4,0.4,0.4,0.7c0,0.5-0.3,0.5-1,0.5l-0.2,0H58c-0.4,0-0.8,0-1-0.2C57,64.5,57,64.3,57,64.2
	c0-0.3,0.2-0.6,0.4-0.7H53c0.3-0.5,0.6-1.1,0.8-1.7c0.9-3.1,0.8-6.5,0.9-9.3c0-1.6,0-1.5,0-3c0,0,0.3-0.1,0.1-0.7
	c-0.1-0.3-0.3-0.6-0.6-0.8c0-0.1,0-0.3-0.1-0.4l-0.2-0.2c0,0,0-0.1,0-0.1c-0.1-0.2-0.1-0.5-0.1-0.7c-0.1-0.9-0.3-1.9-0.6-2.8
	c0.1,0,0.2,0,0.4,0c0.4-0.1,0.4-0.6,0.1-0.9c-0.1-0.1-0.4-0.6-0.6-0.8c-0.2-0.4-0.3-0.7-0.4-1.1c-0.1-0.7-0.1-1.4,0-2.1
	c0.2-3.2-1.3-3.4-1.8-3.6c-0.2-0.1-0.3-0.2-0.5-0.3c0,0.6-0.9,1-1.8,1c-0.9,0-1.8-0.4-1.8-1c0,0,0-0.1,0.1-0.2l-0.4,0.1
	c-0.5,0.1-0.7,0.1-0.9,0.2c-0.5,0.2-0.8,0.6-0.9,1.1c-0.3,0.7-0.5,1.4-0.5,1.4c-0.1,0.2-0.2,0.5-0.2,0.5s-0.2-0.2-0.3-0.3
	c-0.2-0.2-1.3-1.2-1.5-1.4c-0.1-0.1-0.8,0.1-0.8,0.1c1,0.8,1.9,1.7,2.7,2.8c0.1,0.2,0,0.1-0.1,0.1c-1.1-0.4-2.3-0.6-3.5-0.5
	l-0.5,0.6c2.1-0.2,3.7,0,4.1,0.6c0.1,0.2,0.3,0.2,0.5,0.2c0.2,0,0.3-0.2,0.3-0.4c0-0.1,0-0.2,0.1-0.3c0.8-1.4,2.1-2.5,3.7-3.1
	l1.1,3.3c0.3,0,0.5,0.1,0.8,0.1c-0.1-0.2-0.5-0.6-0.4-0.8c0-0.1,0.5,0,0.7-0.1c0.3-0.2,0.6-0.5,0.3-1.5c-0.1-0.2-0.2-0.4-0.2-0.5
	l0.2-0.1c0,0.1,0.1,0.2,0.2,0.5c0.5,1.3-0.1,1.6-0.3,1.8c0,0-0.1,0.1-0.1,0.1c-0.1,0.2-0.1,0.5,0.1,0.6c0.2,0.1,0.2,0.2,0.2,0.2
	l0,0.7c-0.9-0.2-1.8-0.4-2.8-0.4c0.1,0,0.4-0.2,0.3-0.3c0,0-0.3,0-0.5,0c-0.1,0-0.1-0.1,0-0.1c0.1,0,0.2-0.1,0.3-0.1
	c0.2-0.1,0.4-0.4,0.6-0.6c0.1-0.1-0.1-0.2-0.1-0.2c0-0.1-0.1-0.2-0.3-0.1c-0.3,0.1-0.5,0.2-0.8,0.3c-0.1,0-0.2-0.1-0.1-0.1
	c0.2-0.2,0.4-0.4,0.5-0.7c0.2-0.3-0.1-0.3-0.2-0.2c-0.4,0.4-0.8,0.7-1.2,0.9c-0.2,0.1-0.2,0-0.2-0.1c0-0.2,0-0.3,0-0.5
	c0-0.2-0.3-0.3-0.3-0.1c0,0.2,0,0.4-0.2,0.6c-0.2,0.3-0.1,0.7-0.2,0.8c-0.6,0.5-1.3,0.7-2,0.5c-0.3-0.4-0.9-0.5-1.4-0.2
	c-1.1,1-0.6,3.3-0.6,3.4c0.5,1.3,1.3,0.6,1.4,0.5c0.6-0.6,1-1.3,1.2-2.1c0.4-0.1,0.8-0.3,1.1-0.6c0.3-0.2,0.6-0.4,1-0.6
	c0.2,0,0.6-0.2,0.7-0.1v0.2c-0.5,0.3-1,0.7-1.5,1c-0.1,0.7-1.7,2.8-1.1,3.3c0.3,0.2,0.1,0.6,0,1c-0.3,1.3-0.5,2.7-0.6,4
	c0,0-0.2,0.7,0.1,0.9c0.6,0.2,1.2,0.2,1.7,0.2c0.2,0,0.5,0.2,0.7,0.2c0,0-0.1,1.1-0.2,1.1C46,52.7,46,51.9,46,52
	c0,0.1-0.2-0.1-0.2-0.1c-0.4,0-0.9,0-1.3,0c-0.1,0-0.3,0.1-0.3,0.2C44.1,52.5,44,53,44,53.5c0,0.4-0.1,0.6-0.1,1
	c0,0.2,0,1.6-0.1,2.2c-0.1,1.2-0.2,4.4-0.2,5.4c-2.1,0.1-4.1-0.2-3.3-1c0.1-0.1,0.3-0.2,0.4-0.4c0.6-0.5,0.6,0,1.3-1
	c0.5-0.9,0.9-1.9,1-3c0.2-0.7-0.1-1-0.6,0c-0.1,0.3-0.3,0.6-0.5,0.9c-0.2,0.3-0.4,0.5-0.7,0.6c-0.6,0.2-1-0.9-0.2-1.8
	c0.3-0.4,0.7-0.3,0.7-0.1c0,0.1,0.1,0.1,0.2,0.1c0,0,0.1,0,0.1-0.1c0.1-0.2,0.2-0.3,0.3-0.5c0.7-1.1,1.1-2.4,1.2-3.6
	c0-0.2,0-0.3,0-0.5c0-0.8-0.5-1.1-0.7-0.6c-0.2,0.4-0.5,0.3-0.4-0.2c0.4-1.6,0.9-3.2,1.5-4.7c0.1-0.3-0.1-0.3-0.2-0.4
	c-0.1-0.1-0.2-0.1-0.1-0.4c0.3-1,0.7-2,1.2-2.9c0.2-0.2-0.1-0.3-0.2-0.1c-2.2,3.4-3.1,9.2-3.1,9.6c0,1.5,0.9,0.7,0.9,0.7
	c-0.2,0.7-0.6,1.4-1.1,2c-1.9,2.8-1.1,4.2-1.1,4.2c0.3,0.6,0.8,1.1-0.3,2c-0.4,0.3-1.6,1.2-0.2,2.1c0.4,0.3,0.7,0.5,0.9,0.6h-2
	c0.2,0.2,0.4,0.4,0.4,0.7c0,0.5-0.3,0.5-1,0.5l-7,0c-0.4,0-0.8,0-1-0.2C30,64.5,30,64.3,30,64.2c0-0.3,0.2-0.6,0.4-0.7l-2.1,0
	c0-0.1-0.1-0.2-0.1-0.3c-1.3-3.4-1.9-7-1.9-10.6c-0.1-6.3,1.9-12.4,5.6-17.5c0,0,0,0,0-0.1v9.2c-0.2-0.1-0.5-0.1-0.7,0.1
	c0,0,0,0,0,0c0.2,0,0.5,0,0.7,0.2c0.2,0.2,0.2,0.4,0.2,0.6c0,0-0.1,0.1-0.1,0.1v0.3c0.2,0.5,0.7,0.7,1.3,0.7c0.6,0,1.2-0.5,1.2-1.2
	c0-0.1-0.1-0.1-0.2-0.2c-0.1,0.3-0.4,0.5-0.8,0.4c-0.3-0.1-0.5-0.4-0.4-0.8c0.1-0.3,0.4-0.5,0.8-0.4c0.3,0.1,0.4,0.3,0.5,0.6
	c0.1,0,0.3,0,0.3-0.4c-0.3-0.1-0.6-0.4-0.5-0.7c0.1-0.3,0.4-0.6,0.7-0.5c0.3,0.1,0.6,0.4,0.5,0.7c0,0.3-0.3,0.5-0.5,0.5
	c0,0.4,0.2,0.4,0.3,0.4c0-0.3,0.3-0.6,0.7-0.6c0.3,0,0.6,0.3,0.6,0.7c0,0.3-0.3,0.6-0.7,0.6c-0.3,0-0.5-0.2-0.6-0.5
	c-0.1,0-0.2,0.1-0.2,0.2c0,0.6,0.5,1.2,1.2,1.2c0.6,0,1.1-0.3,1.3-0.9c-0.2-0.1-0.4-0.3-0.4-0.6c0-0.1,0.1-0.3,0.1-0.4
	c0.2,0,0.5,0,0.6,0.2c0.2,0.2,0.3,0.4,0.2,0.7c0,0,0,0,0,0c0.2-0.2,0.2-0.6,0-0.9c-0.2-0.2-0.4-0.2-0.6-0.2V34c0,0-0.9-7.5,10.5-7.6
	C58.7,26.3,58.6,34,58.6,34v10.1c-0.2,0-0.4,0-0.5,0.2c-0.2,0.2-0.2,0.6,0,0.9c0,0,0,0,0,0c0,0,0,0,0,0c0-0.2,0-0.5,0.2-0.7
	c0.2-0.2,0.4-0.3,0.7-0.2c0.1,0.1,0.2,0.3,0.2,0.4c0,0.3-0.2,0.5-0.4,0.6c0.2,0.6,0.7,0.9,1.3,0.9c0.6,0,1.2-0.5,1.2-1.2
	c0-0.1-0.1-0.1-0.2-0.2c-0.1,0.3-0.4,0.5-0.8,0.4c-0.3-0.1-0.5-0.4-0.4-0.8c0.1-0.3,0.4-0.5,0.8-0.4c0.3,0.1,0.4,0.3,0.5,0.6
	c0.1,0,0.3,0,0.3-0.4c-0.3-0.1-0.6-0.4-0.5-0.7s0.4-0.6,0.7-0.5s0.6,0.4,0.5,0.7c0,0.3-0.3,0.5-0.5,0.5c0,0.4,0.2,0.4,0.3,0.4
	c0-0.3,0.3-0.6,0.7-0.6c0.3,0,0.6,0.3,0.6,0.7c0,0.3-0.3,0.6-0.7,0.6c-0.3,0-0.5-0.2-0.6-0.5c-0.1,0-0.2,0.1-0.2,0.2
	c0,0.6,0.5,1.2,1.2,1.2c0.6,0,1.1-0.3,1.3-0.9c-0.1,0-0.1-0.1-0.2-0.1c-0.1-0.4,0.2-0.8,0.6-0.9c0.1,0,0.2,0,0.2,0c0,0,0,0,0,0
	c-0.1-0.1-0.4-0.2-0.6-0.2L64.3,35C64.3,35,64.3,35,64.3,35 M37.5,45.5c0,0.6,0.5,1.1,1.1,1c0,0,0,0,0,0c0.2,0,0.5-0.1,0.6-0.2
	c-0.1,0.1-0.3,0.1-0.4,0.1c-0.5,0.1-1-0.3-1.1-0.9c0-0.1,0-0.1,0-0.2L37.5,45.5z M29.3,44.8C29.3,44.8,29.3,44.8,29.3,44.8
	c0.4,0,0.8,0.3,0.8,0.7c0,0.1,0,0.2,0,0.3c0,0,0,0,0,0c0.2-0.2,0.2-0.6,0-0.9C30,44.5,29.6,44.5,29.3,44.8 M28.8,45.2
	c0.2-0.2,0.2-0.6,0-0.9s-0.6-0.2-0.9,0c0,0,0,0,0,0c0.4-0.1,0.8,0.2,0.9,0.6C28.8,45,28.8,45.1,28.8,45.2
	C28.8,45.2,28.8,45.2,28.8,45.2 M29.2,45.8c0.2,0.4,0.6,0.6,1,0.7c0.3,0,0.5,0,0.7-0.2c-0.2,0.1-0.4,0.1-0.5,0.1
	c-0.4,0-0.8-0.3-1-0.7L29.2,45.8z M38.8,64.2c0-0.3-0.3-0.6-0.6-0.7c-0.2-0.1-0.3-0.2-0.5-0.2h0c0,0,0,0,0,0l0,0h-6.5l0,0
	c0,0,0,0,0,0h0c-0.2,0.1-0.3,0.1-0.5,0.2c-0.3,0.1-0.5,0.4-0.6,0.7c0,0,0,0.1,0,0.1h8.6C38.8,64.3,38.8,64.2,38.8,64.2 M40.3,44.3
	C40.3,44.3,40.3,44.3,40.3,44.3c0.4,0,0.8,0.3,0.8,0.7c0,0.1,0,0.2,0,0.3c0,0,0,0,0,0c0.2-0.2,0.2-0.6,0-0.9
	C41,44,40.6,44,40.3,44.3C40.3,44.3,40.3,44.3,40.3,44.3 M40.5,45.5c-0.3,0.1-0.6,0.5-0.6,1.6c0,0.3,0,0.4,0,0.5H29.3V55
	c0,1.9,1,3.7,2.7,4.7c1.4,0.8,3.1,1,4.7,0.4c-0.8,0.5-1.7,0.7-2.7,0.7c-0.7,0-1.4-0.1-2-0.4V63h5.5v-3.4c1.6-1,2.7-2.7,2.7-4.7v-7.4
	h0c0-0.2,0-0.4,0-0.6C40,46.5,40.1,45.9,40.5,45.5 M39.9,44.8c-0.2-0.2-0.6-0.2-0.9,0c0,0,0,0,0,0c0.2,0,0.5,0,0.7,0.2
	c0.2,0.2,0.3,0.4,0.2,0.7c0,0,0,0,0,0C40.1,45.4,40.1,45,39.9,44.8 M51.8,29c0-0.5,0-1.1-0.9-1.1c0.3,0-0.7-0.1-0.7,0.4
	c0,0.4-0.3,0.7-0.7,0.7c0,0,0,0-0.1,0c0,0-1.1-0.3-0.5-0.5c0.4-0.2,0.6-0.6,0.5-1.1c0,0,0,0,0,0c-0.2-0.4-0.7-0.5-1.1-0.3
	c-0.1,0-0.1,0.1-0.2,0.1c-0.1,0.1,0,0.5-0.3,0.5c-0.3,0-0.3-0.3-0.3-0.4c0-0.2-0.1-0.5-0.6-0.5c-0.3,0-0.6,0.2-0.6,0.5c0,0,0,0,0,0
	c0,0.2,0.1,0.4,0.2,0.5c0.2,0.1,0.1,0.5-0.2,0.3c-0.1-0.1-1.1-1-2.2-0.4c-0.5,0.3-0.4,0.7-0.1,0.9c0.1,0.1,0.2,0.2,0,0.3
	c-0.3,0.4-0.2,1,0.1,1.3c0.4,0.3,0.9,0.3,1.2-0.1c0.1-0.1,0.1-0.1,0.1-0.2c0.1-0.3,0.2-0.7,0.1-1c0-0.1,0.1-0.5,0.7-0.4
	c0.3,0,0.3,0.2,0.1,0.4c-0.5,0.4-0.9,1.1-0.9,1.8c0,0.3-0.2,0.7-0.5,0.8C45,31.7,44.4,32,45,32.7c0.3,0.4,0.4,0.5-0.3,1.1
	c-0.1,0.1-0.4,0.3,0.1,0.3c0.7,0,1.4,0,2.1-0.1l-0.1-0.3c-0.5,0.1-1.1,0.1-1.6,0.1c0.5-0.3,0.8-0.9,0.5-1.5c0,0,0-0.1,0-0.1
	c-0.3-0.4,0-0.6,0.5-0.7c0.4-0.1,0.9,0,1.2,0.2c0,0-0.8-0.1-1.1,0.2l0,0.1c0,0,0,0.1,0.1,0.2c0.3-0.1,0.6-0.1,0.9-0.2
	c0,0,0.1,0.1,0,0.1c0,0-0.1,0.1-0.1,0c-0.1,0-0.1,0-0.2,0c0,0,0.1,0.1,0.1,0.1c0,0.1,0,0.2-0.1,0.2c-0.1,0-0.2,0-0.2-0.1
	c0,0,0,0,0,0c0-0.1,0-0.1,0-0.2c-0.1,0-0.2,0-0.4,0.1c0,0,0,0,0,0.1c0,0,0,0.1,0,0.1c0.1,0.1,0.1,0.3,0.1,0.4c0,0.1,0,0.2,0.1,0.2
	c0,0,0,0.1,0.1,0.2c0.2,0.4,0.5,1.1,1.3,0.9c0,0,0.1,0,0.1,0.1c0,0,0,0,0,0c0,0,0,0.1-0.1,0.1c0,0-0.1,0-0.2,0.1
	c-0.1,0.1-0.3,0.1-0.5,0c0,0.1,0.1,0.2,0.1,0.2s-0.3,0-0.4,0.1c0,0.1,0,0,0,0.1c0,0.5,0.7,0.9,1.5,0.9s1.5-0.4,1.5-0.9
	c0,0,0-0.1,0-0.1l0,0c-0.1-0.1-0.1-0.1-0.1-0.2c-0.4-0.6-0.3-0.8-0.3-0.8c0-0.1,0-0.1,0-0.1c0.7,0,1.3-0.1,2-0.2
	c0.1,0,0.3-0.2,0.2-0.3c-0.1-0.1-1.2-0.2-1.2-0.9c0-0.5,0.1-1.1-0.8-1.4c-0.1,0-0.1-0.1-0.1-0.2c0-0.3-0.1-0.7-0.3-0.9
	c-0.2-0.2-0.4-0.4-0.4-0.5l0.1,0c0.3,0.1,0.5,0.3,0.6,0.6c0.1,0.3,0.4,0.5,1.2,0.5C51.3,30.2,51.8,29.7,51.8,29 M65.9,44.7
	c-0.2,0.2-0.2,0.6,0,0.9c0,0,0,0,0,0c0-0.2,0-0.5,0.2-0.7c0.2-0.2,0.4-0.3,0.7-0.2c0,0,0,0,0,0C66.5,44.5,66.1,44.5,65.9,44.7
	C65.9,44.7,65.9,44.7,65.9,44.7 M65.7,46.4c-0.2,0-0.4,0-0.5-0.1c0.2,0.2,0.5,0.2,0.7,0.2c0.4,0,0.8-0.3,1-0.7l-0.2-0.1
	C66.5,46.1,66.1,46.3,65.7,46.4 M61.7,52.4h0.6v-0.5c0-0.3-0.2-0.3-0.4-0.3v-0.1h1.2v0.1c-0.2,0-0.5,0-0.5,0.3v0.5h0.3V53
	c0.1,0,0.1,0,0.2,0c0.4,0,0.5-0.2,0.5-0.6c0-0.1,0-0.3,0-0.4h0.2c0,0.2,0,0.3,0,0.5v-0.1c0,0.2-0.1,0.4-0.2,0.6
	c-0.2,0.1-0.4,0.2-0.6,0.2c0,0-0.1,0-0.1,0v0.7h1.2v-3h-2.5L61.7,52.4z M64.4,49.1C64.4,49,64.4,49,64.4,49.1
	C64.4,49,64.4,49,64.4,49.1C64.4,49,64.4,49,64.4,49.1C64.4,49,64.4,49,64.4,49.1l-0.3-0.2c0,0,0,0,0,0c0,0,0,0,0,0l0.1,0.1
	c0,0,0,0,0,0c0,0,0,0.1,0.1,0.1C64.3,49.1,64.4,49.1,64.4,49.1 M64.3,49.3c-0.1,0-0.2,0-0.3,0.2c0.4-0.2,0.4,0.1,0.4,0.1
	C64.5,49.6,64.6,49.4,64.3,49.3 M64.4,49.1C64.4,49.1,64.4,49.1,64.4,49.1C64.4,49.1,64.4,49.1,64.4,49.1c0,0.1,0,0.1,0.1,0.1
	c0.1,0,0.1,0,0.1,0c0,0,0,0,0,0l0.1,0c0,0,0,0,0,0c0,0,0,0,0,0L64.4,49.1C64.4,49,64.4,49,64.4,49.1 M64.6,51c-0.1,0-0.2,0-0.2,0
	v0.2c0.1,0,0.1,0,0.2-0.1C64.7,51.1,64.6,51,64.6,51 M63.9,55.7c0.2-0.4,0.3-0.8,0.3-1.2v-0.4h-1.2v0.1c0,0.1,0,0.2,0,0.3L63.9,55.7
	z M62,55.5c-0.1,0-0.2,0-0.3,0v1.5c0.4,0,0.8-0.1,1.2-0.4L62,55.5z M61.2,53.3v-0.7h-0.7v0.7H61.2v0.8h-0.7v0c0,0.5,0.3,0.9,0.7,1.1
	v-1.1H62v1.1c0.4-0.2,0.7-0.5,0.7-1c0,0,0-0.1,0-0.1v0H62v-0.8L61.2,53.3z M62,53.3h0.7v-0.7H62V53.3z M58.9,48.7
	C58.9,48.7,58.9,48.7,58.9,48.7C58.9,48.7,58.9,48.7,58.9,48.7c0.1,0.1,0.1,0.1,0.1,0c0,0,0,0,0,0c0,0,0,0,0,0l0.1,0c0,0,0,0,0,0
	c0,0,0,0,0,0L58.9,48.7L58.9,48.7L58.9,48.7L58.9,48.7C58.9,48.6,58.9,48.6,58.9,48.7C58.9,48.6,58.9,48.7,58.9,48.7L58.9,48.7z
	 M59,51.9v2h1.2v-0.5L59,51.9z M61.2,52.4h0.3v-1.5H60L61.2,52.4z M59,54.1v0.4c0,1.4,1.1,2.6,2.5,2.6v-1.5c-0.1,0-0.2,0-0.3,0
	c0,0,0,0.1,0,0.1v-0.1c0,0.2-0.1,0.4-0.2,0.6c-0.2,0.1-0.4,0.2-0.6,0.2c-0.2,0-0.4,0-0.5-0.1c-0.2-0.1-0.3-0.3-0.2-0.6V55
	c0-0.3-0.2-0.3-0.4-0.3v-0.1h1c0-0.1-0.1-0.3-0.1-0.4v-0.1L59,54.1z M60.3,54.8c-0.2,0-0.3,0.1-0.3,0.3v0.6c0,0.4,0.2,0.6,0.5,0.6
	c0.4,0,0.5-0.2,0.5-0.6v-0.1C60.7,55.4,60.5,55.1,60.3,54.8 M58.4,45.5c-0.1,0.5-0.6,0.9-1.1,0.9c-0.2,0-0.3,0-0.4-0.1
	c0.5,0.4,1.1,0.3,1.5-0.2c0.1-0.2,0.2-0.4,0.2-0.6l-0.2-0.1C58.4,45.4,58.4,45.4,58.4,45.5 M56.2,44.8c-0.2,0.2-0.2,0.6,0,0.9
	c0,0,0,0,0,0c0-0.2,0-0.5,0.2-0.7c0.2-0.2,0.4-0.3,0.7-0.2c0,0,0,0,0,0C56.8,44.5,56.4,44.5,56.2,44.8
	C56.2,44.8,56.2,44.8,56.2,44.8 M55.1,44.5c0.2-0.2,0.4-0.3,0.7-0.2c0,0,0,0,0,0c-0.2-0.2-0.6-0.2-0.9,0s-0.2,0.6,0,0.9c0,0,0,0,0,0
	c0,0,0,0,0,0C54.8,44.9,54.9,44.7,55.1,44.5 M55.7,45.5c0.4,0.4,0.5,1,0.4,1.5c0,0.4,0,0.5,0,0.6l0,0v6.3h2.6v-1.5
	c-0.2,0.1-0.5,0.1-0.7,0.1C57.9,52.6,58,53,58,53c-0.2,0-0.2-0.3-0.2-0.3c-0.2,0-0.2,0.3-0.2,0.3c-0.2-0.1,0-0.3-0.1-0.3
	c-0.1,0-0.3,0.2-0.3,0.2c0-0.2,0-0.3,0.2-0.4c-0.1-0.1-0.2,0-0.2,0c0.1-0.4,0.4-0.2,0.5-0.1c0.1,0,0.1,0.1,0.2,0
	c0.2-0.1,0.4-0.2,0.6-0.3c-0.2,0-0.3-0.2-0.3-0.2c0.2,0,0.3-0.1,0.3-0.1c0.1-0.2,0.2-0.3,0.4-0.4v-0.4c-0.1-0.1-0.3-0.1-0.4-0.2
	c-0.2,0.3-0.5,0.5-0.8,0.7c-0.1,0-0.1,0.1-0.1,0.1c0,0.2-0.1,0.3-0.1,0.3c0-0.1,0-0.2-0.1-0.2c0,0,0,0,0,0c-0.2,0-0.2,0.2-0.2,0.2
	c-0.2-0.1,0-0.4,0-0.4c-0.1,0-0.2,0.1-0.3,0.1c-0.1-0.2,0.2-0.3,0.2-0.3c-0.1,0-0.2,0-0.3,0c0.1-0.2,0.3-0.2,0.4-0.1
	c0,0,0.1,0,0.1,0.1c0,0.1,0.1,0.1,0.1,0c0.1-0.1,0.6-0.6,0.7-0.7c-0.1,0-0.3,0-0.5-0.1c0.2,0,0.4-0.1,0.5-0.2c0,0,0-0.1-0.1-0.1
	c-0.3-0.2-0.6-0.5-0.9-0.8c-0.3,0-0.4-0.2-0.4-0.2c0.1,0,0.3,0,0.3-0.1c0-0.1-0.3-0.2-0.3-0.2c0.1-0.1,0.3,0,0.3,0
	c0,0-0.2-0.3-0.2-0.3c0.1,0,0.3,0.2,0.3,0.2c0-0.1,0-0.3,0-0.3c0.3,0.2,0.2,0.6,0.2,0.6l0.9,0.7c0.2,0.1,0.5,0.1,0.6-0.1
	c0.1-0.1,0.1-0.2,0-0.3c0,0-0.1,0-0.1-0.1c0,0-0.2,0-0.2,0c0-0.1,0-0.2,0-0.2c0.1,0,0.2,0,0.3,0c0,0,0.1-0.1,0-0.1
	c-0.3-0.1-0.4-0.2-0.4-0.2c0-0.1,0-0.2,0-0.2c0.1,0,0.2,0,0.2,0c0.1-0.2,0.2-0.2,0.3-0.2c0.1,0,0.3,0,0.4,0.1c0,0,0.1,0,0.1,0
	c0.1-0.1,0.3-0.1,0.4,0c0,0,0,0,0,0c-0.1,0-0.2,0.1-0.2,0.1c0.1,0.1,0,0.4-0.1,0.4c-0.1,0.2,0.2,0.5,0.2,0.5c-0.1,0.1-0.3,0.1-0.4,0
	c0,0.4,0.7,0.5,0.7,0.5c-0.1,0.2-0.6,0.2-0.6,0.2c-0.1,0-0.1,0.1,0,0.2c0.2,0.1,0.4,0.2,0.6,0.4h0.6c0-0.1,0-0.2,0-0.3
	c-0.1-0.2-0.2-0.5-0.4-0.7c-0.1-0.1-0.1-0.1-0.1-0.2c0,0-0.3-0.5-0.1-0.7c0.1-0.2,0.3-0.3,0.5-0.2c0.2-0.2,0.5-0.1,0.6,0.2
	c0.1,0.4-0.2,0.4,0,1c-0.4-0.1-0.7-0.5-0.6-0.9c0,0,0,0,0-0.1c-0.1,0-0.1,0-0.2,0c-0.1,0-0.2,0-0.2,0.1c-0.1,0.1,0,0.4,0.1,0.5
	c0,0.1,0.1,0.1,0.1,0.2c0.2,0.2,0.3,0.5,0.4,0.7c0,0.1,0,0.2,0,0.3h0.6v-3.1h-5.1l-0.1,0c0-0.1,0-0.2,0-0.4
	C56.4,46,56,45.6,55.7,45.5 M56.2,55c0,0.3,0,0.6,0.1,0.9h2.9c-0.3-0.4-0.4-0.9-0.4-1.4v-0.4h-2.6V55 M57.2,58.1
	c0.4,0.5,0.8,1,1.4,1.3l0,3.5h5.7l0-2.7C62.8,61,61,60.8,59.6,60c0.6,0.2,1.3,0.4,1.9,0.4v-2.3L57.2,58.1 M65.8,64.2
	c0-0.4-0.4-0.7-1.1-1h-6.5c-0.7,0.2-1.1,0.6-1.1,1c0,0,0,0.1,0,0.1h8.6C65.8,64.3,65.8,64.2,65.8,64.2 M67,54.1h-2.6v0.4
	c0,0.3,0,0.5-0.1,0.7c0.2,0,0.3,0,0.5,0c0,0,0.4,0,0.6,0c0.1,0,0.2,0,0.3,0c0.2,0,0.5-0.2,0.6-0.3c0,0,0.1-0.1,0-0.1
	c0,0,0-0.1,0-0.1c-0.2,0-0.4,0-0.5,0.1c-0.2,0.1-0.4,0.2-0.6,0.1c-0.1,0-0.1-0.1,0-0.3c0,0,0-0.2,0.3-0.2c0.1,0,0.1,0.1,0,0.2
	c-0.1,0-0.2,0.1-0.3,0.1c0,0.1,0,0.1,0,0.1c0.2,0.1,0.4,0.1,0.5-0.1c0.2-0.1,0.4-0.1,0.6-0.1c0.1,0,0.1,0.1,0.1,0.1
	c0,0.1-0.1,0.2-0.1,0.2c-0.1,0.2-0.4,0.3-0.6,0.3c0,0,0.1,0.1,0.1,0.1c0,0,0,0.1,0,0.2c0,0.3,0.4,0.1,0.4,0.1c0,0.2-0.1,0.4-0.1,0.6
	c0,0.1-0.2,0.1-0.3,0.1c-0.1,0,0-0.1,0-0.1c0,0,0.2,0,0.2,0l0.1-0.3c-0.2,0-0.5-0.1-0.6-0.3c-0.2,0.3-0.4,0.5-0.7,0.7
	c-0.1,0.1-0.2,0.1-0.3,0c-0.1-0.1,0.1-0.1,0.1-0.1c0.2-0.1,0.6-0.6,0.6-0.6s0.1-0.2-0.4,0.1c-0.2,0.1-0.5,0.2-0.8,0.2c0,0,0,0,0,0
	c-0.2,0.4-0.6,0.7-1,1c-0.4,0.2-0.9,0.4-1.3,0.4v3.1c1.1,0,2.1-0.4,3-1v0c1.4-1,2.3-2.7,2.3-4.4L67,54.1z M67,47.6h-5.2v3.1h1.5
	c0,0,0,0,0.1-0.1c-0.1-0.1-0.2-0.1-0.3-0.2c0.2,0,0.4-0.1,0.5-0.2c0,0,0-0.1-0.1-0.1c-0.3-0.2-0.6-0.5-0.9-0.8
	c-0.3,0-0.4-0.2-0.4-0.2c0.1,0,0.3,0,0.3-0.1c0-0.1-0.3-0.2-0.3-0.2c0.1-0.1,0.3,0,0.3,0c0-0.1-0.1-0.2-0.2-0.3
	c0.1,0,0.3,0.2,0.3,0.2c0-0.1,0-0.3,0-0.3c0.2,0.1,0.3,0.3,0.2,0.6l0.7,0.5c0.2,0.1,0.4,0.2,0.5-0.1c-0.1,0-0.2-0.1-0.3-0.2
	c0.1,0,0.2,0,0.3-0.1c0.2-0.1,0-0.5,0.2-0.5l0.8,0.2c0,0.2,0,0.3-0.1,0.5c0,0,0,0.3,0.2,0.3c0,0-0.3,0-0.3,0l0,0.1
	c0,0.2,0.1,0.4,0.3,0.5c0.3,0.1,0.6,0.3,0.8,0.5c0.1,0,0.3,0,0.4-0.1c0.1-0.1,0.1-0.2,0-0.3c-0.1-0.2-0.2-0.5-0.4-0.7
	c-0.1-0.1-0.1-0.1-0.1-0.2c0,0-0.3-0.5-0.1-0.7c0.1-0.2,0.3-0.3,0.5-0.2c0.2-0.2,0.5-0.1,0.6,0.2c0.1,0.4-0.2,0.4,0,1
	c-0.4-0.1-0.7-0.5-0.6-0.9c0,0,0,0,0-0.1c-0.1,0-0.1,0-0.2,0c-0.1,0-0.2,0-0.2,0.1c-0.1,0.1,0,0.4,0.1,0.5c0,0,0.1,0.1,0.1,0.2
	c0.2,0.2,0.3,0.5,0.4,0.7c0.1,0.2,0,0.3-0.1,0.5C66.1,51,65.9,51,65.8,51c0,0.1,0,0.1,0.1,0.2c0,0.1,0.1,0.2,0.2,0.2
	c-0.2,0.2-0.2,0.4,0,0.5c0.1,0.1,0.3,0,0.3,0c0.1,0.8-1,1.3-1,1.3c0,0.1,0.1,0,0.1,0.1c0.1,0.1,0,0.2,0,0.2c0,0,0,0-0.1,0
	c0-0.1,0-0.3-0.1-0.3c-0.1,0-0.2,0.3-0.2,0.3c-0.1-0.1,0.1-0.3,0.1-0.3c-0.1,0-0.3,0.3-0.3,0.3c-0.1-0.1,0.1-0.3,0.1-0.3
	c-0.1,0-0.3,0.2-0.3,0.2c0-0.4,0.3-0.4,0.5-0.4c0.6,0,0.5-0.7,0.5-0.7c-0.3,0.3-0.5,0.2-0.5,0.2c0.1-0.1,0.2-0.2,0.2-0.4
	c-0.1-0.6-0.1-0.6,0-0.7c0-0.1-0.1,0-0.1,0c-0.1,0.3-0.6,0.7-0.6,0.7c0.1,0,0.2,0.1,0.3,0.1c-0.1,0.1-0.1,0.2-0.3,0.3v1.5H67
	L67,47.6z"/>
<path class="st0" d="M93.8,33.8c-1.1,0.1-1.6,0.4-1.7,1.1C92,35.9,92,36.8,92,37.8v0.9c0,2.1-0.3,3.7-1.4,4.8
	c-0.9,0.9-2.2,1.4-3.4,1.3c-1.1,0-2.2-0.3-3.1-0.9c-1.1-0.9-1.6-2.3-1.6-4.5v-3.8c0-1.7-0.2-1.8-1.6-1.9v-0.6H86v0.6
	c-1.4,0.1-1.6,0.2-1.6,1.9v3.4c0,2.9,1.1,4.6,3.3,4.6c2.5,0,3.3-2,3.3-5.1v-0.9c0-1,0-1.9-0.2-2.8c-0.1-0.7-0.5-1-1.8-1.1v-0.6h4.7
	L93.8,33.8z M106.1,34.7c0.6,0,1.1-0.5,1.1-1.1c0-0.6-0.5-1.1-1.1-1.2c0,0,0,0,0,0c-0.6,0-1.1,0.5-1.1,1.1
	C104.9,34.2,105.4,34.7,106.1,34.7z M108.6,44.6v-0.5c-1.2-0.1-1.4-0.2-1.4-1.5v-6.5c-1.1,0.3-2.2,0.5-3.3,0.7v0.5
	c1,0.2,1.4,0.2,1.4,1.4v3.8c0,1.3-0.2,1.4-1.4,1.5v0.5H108.6z M119.6,39.3c0.1-1.4,0.8-2.4,1.8-2.4c0.9,0,1.4,1,1.4,2
	c0,0.3-0.1,0.4-0.4,0.4H119.6z M124.3,39.9c0.3,0,0.5-0.2,0.5-0.4c0,0,0-0.1,0-0.1c0.1-1.7-1.2-3.1-2.8-3.2c-0.1,0-0.3,0-0.4,0
	c-1,0-2,0.4-2.7,1.2c-0.9,0.9-1.4,2.2-1.4,3.4c-0.1,2.1,1.5,3.9,3.6,4c0.1,0,0.2,0,0.3,0c1.3-0.1,2.5-0.8,3.3-1.9l-0.3-0.4
	c-0.6,0.6-1.4,0.9-2.2,0.9c-1.4,0-2.7-0.8-2.7-3.3L124.3,39.9z M152.7,39.3c0.1-1.4,0.8-2.4,1.8-2.4c0.9,0,1.4,1,1.4,2
	c0,0.3-0.1,0.4-0.4,0.4H152.7z M157.4,39.9c0.3,0,0.5-0.1,0.5-0.4c0,0,0-0.1,0-0.1c0.1-1.7-1.2-3.1-2.8-3.2c-0.1,0-0.3,0-0.4,0
	c-1,0-2,0.4-2.7,1.2c-0.9,0.9-1.4,2.2-1.4,3.4c-0.1,2.1,1.5,3.9,3.6,4c0.1,0,0.2,0,0.3,0c1.3-0.1,2.5-0.8,3.3-1.9l-0.3-0.4
	c-0.6,0.6-1.4,0.9-2.2,0.9c-1.4,0-2.7-0.8-2.7-3.3L157.4,39.9z M128.8,38.2v-2.1c-1,0.4-2,0.6-3,0.7v0.5c1,0.2,1.1,0.3,1.1,1.4v4
	c0,1.2-0.2,1.3-1.3,1.4v0.5h4.8v-0.5c-1.4-0.1-1.6-0.2-1.6-1.4v-3.5c0.4-0.9,0.9-1.3,1.3-1.3c0.4,0.1,0.7,0.2,1,0.5
	c0.1,0.1,0.3,0.1,0.4,0c0.4-0.3,0.7-0.8,0.7-1.4c0-0.5-0.5-0.9-1.2-0.9C130.4,36.1,129.5,37.1,128.8,38.2L128.8,38.2z M138.4,38.5
	c-0.1-0.7-0.2-1.4-0.4-2.1c-0.6-0.2-1.2-0.3-1.8-0.3c-1.9,0-3.1,1.2-3.1,2.5c0,1.5,1.4,2.2,2.4,2.7c1.1,0.5,1.5,1,1.5,1.6
	c0,0.6-0.5,1.2-1.2,1.2c0,0,0,0-0.1,0c-1.2,0-2-1.2-2.4-2.4l-0.5,0.1c0,0.8,0.1,1.6,0.3,2.4c0.7,0.4,1.5,0.6,2.3,0.6
	c1.6,0,3.3-0.9,3.3-2.7c0-1.4-1-2.1-2.5-2.7c-0.9-0.4-1.5-0.8-1.5-1.5c0-0.6,0.4-1.1,1.1-1.2c0,0,0,0,0.1,0c1,0,1.6,0.8,2,1.9
	L138.4,38.5z M141.9,34.7c0.6,0,1.1-0.5,1.1-1.1c0-0.6-0.5-1.1-1.1-1.2c0,0,0,0,0,0c-0.6,0-1.1,0.5-1.1,1.1
	C140.7,34.2,141.2,34.7,141.9,34.7z M144.3,44.6v-0.5c-1.2-0.1-1.4-0.2-1.4-1.5v-6.5c-1.1,0.3-2.2,0.5-3.3,0.7v0.5
	c1,0.2,1.3,0.2,1.3,1.4v3.8c0,1.3-0.2,1.4-1.3,1.5v0.5L144.3,44.6z M160.9,34.7c0.6,0,1.1-0.5,1.1-1.1c0-0.6-0.5-1.1-1.1-1.2
	c0,0,0,0,0,0c-0.6,0-1.1,0.5-1.1,1.1C159.8,34.2,160.3,34.7,160.9,34.7L160.9,34.7z M163.4,44.6v-0.5c-1.2-0.1-1.4-0.2-1.4-1.5v-6.5
	c-1.1,0.3-2.2,0.5-3.3,0.7v0.5c1,0.2,1.3,0.2,1.3,1.4v3.8c0,1.3-0.2,1.4-1.3,1.5v0.5L163.4,44.6z M165,35v1.5h-1l-0.4,0.7v0.2h1.4
	v5.2c-0.1,1.1,0.7,2.2,1.8,2.3c0.1,0,0.3,0,0.4,0c0.2,0,0.4,0,0.6-0.1c0.6-0.3,1.1-0.6,1.7-0.9l-0.2-0.5c-0.4,0.2-0.8,0.3-1.2,0.3
	c-0.4,0-1.1-0.3-1.1-1.8v-4.6h2.1c0.2-0.3,0.3-0.6,0.2-0.9H167v-2.5l-0.3-0.1C166.2,34.3,165.6,34.7,165,35L165,35z M146,35v1.5h-1
	l-0.4,0.7v0.2h1.4v5.2c-0.1,1.1,0.7,2.2,1.8,2.3c0.1,0,0.3,0,0.5,0c0.2,0,0.4,0,0.6-0.1c0.6-0.3,1.1-0.6,1.7-0.9l-0.2-0.5
	c-0.4,0.2-0.8,0.3-1.2,0.3c-0.4,0-1.1-0.3-1.1-1.8v-4.6h2.1c0.2-0.3,0.3-0.6,0.2-0.9H148v-2.5l-0.3-0.1
	C147.2,34.3,146.6,34.7,146,35L146,35z M114.1,44.6c0.9-2.8,1.5-4.6,2.2-6.5c0.3-0.9,0.5-1,1.4-1.1v-0.5h-3.6l0,0.5
	c0.2,0,0.4,0.1,0.7,0.1c0.4,0.1,0.5,0.4,0.3,0.9l-1.6,5.4h-0.1l-1.5-5.4c-0.1-0.6-0.1-0.8,0.1-0.9c0.2-0.1,0.5-0.2,0.8-0.2v-0.5
	h-4.4V37c1.1,0.1,0.9,0.2,1.3,1.2l2.1,6.4L114.1,44.6z M93.6,37.3c1,0.2,1.4,0.3,1.4,1.4v3.9c0,1.2-0.2,1.3-1.4,1.5v0.5h4.5v-0.5
	c-0.9-0.1-1.1-0.2-1.1-1.4v-4.5c0.4-0.4,1-0.7,1.6-0.8c0.9,0,1.7,0.5,1.7,1.9v3.2c0,1.3-0.1,1.4-1.1,1.5v0.5h4.3v-0.5
	c-1-0.1-1.3-0.2-1.3-1.4v-3.6c0-1.9-0.9-3-2.4-3c-0.4,0-0.9,0.1-1.2,0.3l-1.6,1.1v-1.4c-1.1,0.3-2.2,0.6-3.3,0.7L93.6,37.3z
	 M102.4,53.5c0.6,0,1.1-0.5,1.2-1.1c0-0.6-0.5-1.1-1.1-1.2c-0.6,0-1.1,0.5-1.2,1.1c0,0,0,0,0,0C101.2,53,101.7,53.5,102.4,53.5z
	 M104.8,63.5v-0.5c-1.2-0.1-1.4-0.2-1.4-1.5v-6.5c-1.1,0.3-2.2,0.5-3.3,0.7v0.5c1,0.2,1.3,0.2,1.3,1.4v3.8c0,1.3-0.2,1.4-1.3,1.5
	v0.5H104.8z M94,58.1c0.1-1.4,0.8-2.4,1.8-2.4c0.9,0,1.4,1,1.4,2c0,0.3-0.1,0.4-0.4,0.4H94z M98.7,58.7c0.3,0,0.5-0.1,0.5-0.4
	c0,0,0-0.1,0-0.1c0.1-1.7-1.2-3.1-2.8-3.2c-0.1,0-0.3,0-0.4,0c-1,0-2,0.4-2.7,1.2c-0.9,0.9-1.4,2.2-1.4,3.4c-0.1,2.1,1.5,3.9,3.6,4
	c0.1,0,0.2,0,0.3,0c1.3-0.1,2.5-0.8,3.3-1.9l-0.3-0.4c-0.6,0.6-1.4,0.9-2.2,0.9c-1.4,0-2.7-0.8-2.7-3.3L98.7,58.7z M117.5,58.1
	c0.1-1.4,0.8-2.4,1.8-2.4c0.9,0,1.4,1,1.4,2c0,0.3-0.1,0.4-0.4,0.4H117.5z M122.2,58.7c0.3,0,0.5-0.1,0.5-0.4c0,0,0-0.1,0-0.1
	c0.1-1.7-1.2-3.1-2.8-3.2c-0.1,0-0.3,0-0.4,0c-1,0-2,0.4-2.7,1.2c-0.9,0.9-1.4,2.2-1.4,3.4c-0.1,2.1,1.5,3.9,3.6,4
	c0.1,0,0.2,0,0.3,0c1.3-0.1,2.5-0.8,3.3-1.9l-0.3-0.4c-0.6,0.6-1.4,0.9-2.2,0.9c-1.4,0-2.7-0.8-2.7-3.3L122.2,58.7z M90.4,60.1
	c-0.2,0.7-0.6,1.3-1.1,1.8c-0.5,0.5-1.2,0.7-1.9,0.7c-0.5,0-1,0-1.5-0.2c-0.4-0.2-0.4-0.5-0.4-1.5v-6.5c0-1.6,0.2-1.7,1.7-1.8V52
	h-5.4v0.6c1.5,0.1,1.7,0.2,1.7,1.8V61c0,1.6-0.2,1.7-1.9,1.8v0.6h8.8c0.2-0.5,0.6-2.5,0.7-3.2L90.4,60.1z M111.4,61.9
	c-0.4,0.3-0.9,0.5-1.4,0.5c-1,0-2.4-1-2.4-3.3c0-2.8,1.5-3.4,2.2-3.4c0.7-0.1,1.3,0.2,1.7,0.8V61.9z M114.9,62.4l-0.6-0.1
	c-0.7-0.1-0.9-0.2-0.9-1.2V50.7c-1.1,0.3-2.3,0.5-3.4,0.7v0.5c1.3,0.1,1.5,0.2,1.5,1.3v2c-0.4-0.1-0.8-0.1-1.2-0.2
	c-2.4-0.2-4.6,1.7-4.7,4.1c0,0.2,0,0.3,0,0.5c-0.2,2,1.3,3.7,3.3,3.9c0.1,0,0.1,0,0.2,0c0.5,0,1-0.1,1.4-0.3l1.1-0.7v1.1
	c0.7-0.2,2.4-0.6,3.4-0.7V62.4z M123.5,56.1c1,0.2,1.3,0.3,1.3,1.4v3.9c0,1.2-0.2,1.3-1.4,1.5v0.5h4.4v-0.5
	c-0.9-0.1-1.1-0.2-1.1-1.4V57c0.4-0.4,1-0.7,1.6-0.8c0.9,0,1.7,0.5,1.7,1.9v3.2c0,1.3-0.1,1.4-1.1,1.5v0.5h4.2v-0.5
	c-1-0.1-1.2-0.2-1.2-1.4v-3.6c0-1.9-0.9-3-2.4-3c-0.4,0-0.8,0.1-1.2,0.3l-1.5,1.1v-1.4c-1.1,0.3-2.2,0.6-3.3,0.7L123.5,56.1z"/>
<path class="st0" d="M90.3,79.3V79c0.6-0.1,0.6-0.2,0.6-0.8v-1.9c0-0.9-0.4-1.2-0.9-1.2c-0.4,0-0.7,0.1-0.9,0.4v2.7
	c0,0.6,0.1,0.7,0.6,0.8v0.3h-2.5V79c0.7-0.1,0.7-0.1,0.7-0.8v-5.4c-0.7-0.1-1.4-0.1-2.2-0.1h-0.6v5.3c0,0.9,0.1,1,1,1.1v0.4h-3.3
	v-0.4c0.9-0.1,1-0.1,1-1.1v-5.3h-0.5c-1,0-1.2,0.1-1.3,0.4c-0.2,0.3-0.3,0.6-0.4,1h-0.4c0.1-0.7,0.1-1.5,0.1-2.1h0.2
	c0.2,0.2,0.3,0.3,0.6,0.3h4.6c0.9,0,1.1-0.1,1.1-0.2v-0.2c0.4-0.1,0.8-0.2,1.2-0.3V75c0.4-0.4,0.9-0.7,1.5-0.7c1,0,1.5,0.6,1.5,1.8
	v2c0,0.7,0.1,0.8,0.7,0.8v0.3H90.3z"/>
<path class="st0" d="M97.5,78.3c-0.4,0.7-1.1,1.1-1.9,1.2c-1.2,0-2.2-0.9-2.2-2.2c0-0.1,0-0.1,0-0.2c0-0.7,0.3-1.4,0.8-2
	c0.4-0.5,1-0.8,1.7-0.8c0.9,0,1.7,0.8,1.7,1.7c0,0.2-0.1,0.4-0.3,0.4c-0.2,0-1.6,0.1-2.7,0.2c0,1.3,0.8,1.9,1.5,1.9
	c0.5,0,0.9-0.2,1.2-0.5L97.5,78.3z M94.6,76.1c0.5,0,1,0,1.5,0c0.2,0,0.2,0,0.3-0.2c0-0.6-0.3-1.1-0.8-1.1
	C95.1,74.7,94.7,75.2,94.6,76.1z"/>
<path class="st0" d="M107.5,72.5c-0.6,0-0.8,0.2-0.9,0.7c-0.1,0.6-0.1,1.2-0.1,1.8v4.4h-0.5l-4.6-5.6h0v2.6c0,0.6,0,1.2,0.1,1.8
	c0.1,0.5,0.3,0.7,1.1,0.7v0.4h-2.7v-0.4c0.6,0,0.9-0.2,0.9-0.7c0.1-0.6,0.1-1.2,0.1-1.8v-2.3c0-0.7,0-0.9-0.2-1.2
	c-0.2-0.3-0.6-0.4-0.9-0.4v-0.4h1.9l4.3,5.1h0V75c0-1-0.1-1.5-0.1-1.8c-0.1-0.5-0.3-0.6-1.1-0.7v-0.4h2.7V72.5z"/>
<path class="st0" d="M112,78.3c-0.4,0.7-1.1,1.1-1.9,1.2c-1.2,0-2.2-0.9-2.2-2.2c0-0.1,0-0.1,0-0.2c0-0.7,0.3-1.4,0.8-2
	c0.4-0.5,1-0.8,1.7-0.8c0.9,0,1.7,0.8,1.7,1.7c0,0.2-0.1,0.4-0.3,0.4c-0.2,0-1.6,0.1-2.7,0.2c0,1.3,0.8,1.9,1.5,1.9
	c0.5,0,0.9-0.2,1.2-0.5L112,78.3z M109.1,76.1c0.5,0,1,0,1.5,0c0.2,0,0.2,0,0.3-0.2c0-0.6-0.3-1.1-0.8-1.1
	C109.6,74.7,109.2,75.2,109.1,76.1z"/>
<path class="st0" d="M114.9,79.3c-0.1,0.1-0.3,0.1-0.5,0.1c-0.8,0-1.2-0.4-1.2-1.4v-3.1h-0.7l-0.1-0.1l0.3-0.4h0.5v-0.8l1.1-0.8
	l0.1,0.1v1.6h1.1c0.1,0.1,0.1,0.4-0.1,0.5c0,0,0,0,0,0h-1.1v2.8c0,0.9,0.4,1,0.6,1c0.2,0,0.4-0.1,0.6-0.1l0.1,0.3L114.9,79.3z"/>
<path class="st0" d="M119.1,79.3V79c0.6-0.1,0.6-0.1,0.6-0.8v-1.9c0-0.9-0.4-1.2-0.9-1.2c-0.3,0-0.7,0.1-0.9,0.4v2.7
	c0,0.6,0.1,0.7,0.6,0.8v0.3H116V79c0.6-0.1,0.7-0.1,0.7-0.8V73c0-0.7,0-0.7-0.7-0.8v-0.3c0.6-0.1,1.3-0.2,1.9-0.4v3.5
	c0.4-0.4,0.9-0.7,1.5-0.7c0.9,0,1.5,0.6,1.5,1.8v2c0,0.7,0.1,0.7,0.7,0.8v0.3L119.1,79.3z"/>
<path class="st0" d="M126.3,78.3c-0.4,0.7-1.1,1.1-1.9,1.2c-1.2,0-2.2-0.9-2.2-2.2c0-0.1,0-0.1,0-0.2c0-0.7,0.3-1.4,0.8-2
	c0.4-0.5,1-0.8,1.7-0.8c0.9,0,1.7,0.8,1.7,1.7c0,0.2-0.1,0.4-0.3,0.4c-0.2,0-1.6,0.1-2.7,0.2c0,1.3,0.8,1.9,1.5,1.9
	c0.5,0,0.9-0.2,1.2-0.5L126.3,78.3z M123.4,76.1c0.5,0,1,0,1.5,0c0.2,0,0.2,0,0.3-0.2c0-0.6-0.3-1.1-0.8-1.1
	C123.9,74.7,123.5,75.2,123.4,76.1z"/>
<path class="st0" d="M128.8,75.5c0.4-0.6,0.8-1.2,1.3-1.2c0.4,0,0.7,0.3,0.7,0.6c0,0,0,0,0,0c0,0.3-0.2,0.6-0.5,0.7
	c-0.1,0.1-0.2,0-0.3,0c-0.1-0.1-0.3-0.2-0.5-0.2c-0.2,0-0.5,0.2-0.7,0.7v2c0,0.7,0.1,0.7,0.9,0.8v0.3h-2.8V79
	c0.6-0.1,0.7-0.1,0.7-0.8v-2.4c0-0.6-0.1-0.7-0.6-0.8v-0.3c0.6-0.1,1.2-0.2,1.8-0.4L128.8,75.5L128.8,75.5z"/>
<path class="st0" d="M131,79.3V79c0.7-0.1,0.7-0.1,0.7-0.9V73c0-0.7-0.1-0.7-0.7-0.8v-0.3c0.6-0.1,1.3-0.2,1.9-0.4v6.6
	c0,0.7,0.1,0.8,0.8,0.9v0.3L131,79.3z"/>
<path class="st0" d="M137.8,79.4c-0.2,0-0.4-0.1-0.6-0.2c-0.1-0.1-0.2-0.3-0.3-0.4c-0.4,0.3-0.8,0.5-1.2,0.7c-0.8,0-1.4-0.6-1.4-1.4
	c0,0,0,0,0,0c0-0.6,0.3-0.9,0.9-1.1c0.6-0.2,1.2-0.4,1.7-0.7V76c0-0.7-0.3-1.1-0.8-1.1c-0.2,0-0.3,0.1-0.4,0.2
	c-0.2,0.2-0.3,0.5-0.3,0.7c0,0.2-0.2,0.4-0.4,0.3c-0.3,0-0.6-0.2-0.6-0.5c0-0.2,0.1-0.3,0.4-0.5c0.5-0.4,1.1-0.6,1.8-0.8
	c0.8-0.1,1.5,0.6,1.6,1.4c0,0.1,0,0.2,0,0.4v1.9c0,0.5,0.2,0.6,0.4,0.6c0.1,0,0.3,0,0.4-0.1l0.1,0.3L137.8,79.4z M136.8,76.6
	c-0.2,0.1-0.5,0.3-0.7,0.4c-0.3,0.1-0.6,0.4-0.6,0.8c0,0.4,0.3,0.8,0.7,0.8c0,0,0,0,0,0c0.2,0,0.4-0.1,0.6-0.3V76.6z"/>
<path class="st0" d="M142.3,79.3V79c0.5-0.1,0.6-0.1,0.6-0.9v-1.8c0-0.8-0.3-1.1-0.8-1.1c-0.4,0-0.7,0.2-1,0.4v2.6
	c0,0.7,0.1,0.7,0.6,0.8v0.3h-2.6V79c0.7-0.1,0.8-0.1,0.8-0.8v-2.3c0-0.7-0.1-0.7-0.6-0.8v-0.3c0.6-0.1,1.2-0.2,1.8-0.4v0.8
	c0.2-0.2,0.4-0.3,0.7-0.5c0.3-0.2,0.6-0.3,0.9-0.3c0.9,0,1.4,0.6,1.4,1.7v2.1c0,0.7,0.1,0.7,0.7,0.8v0.3H142.3z"/>
<path class="st0" d="M150.8,79c-0.7,0.1-1.3,0.2-2,0.4v-0.7l-0.7,0.4c-0.2,0.1-0.4,0.2-0.7,0.2c-1.3-0.1-2.2-1.1-2.2-2.4
	c0,0,0,0,0,0c0.1-1.6,1.4-2.8,2.9-2.7c0.2,0,0.4,0,0.6,0.1V73c0-0.6-0.1-0.7-0.8-0.8v-0.3c0.7-0.1,1.3-0.2,2-0.4v6.4
	c0,0.6,0.1,0.6,0.5,0.7l0.3,0L150.8,79z M148.8,75.3c-0.2-0.3-0.5-0.6-0.9-0.6c-0.4,0-1.2,0.3-1.2,2c0,1.3,0.8,1.9,1.4,1.9
	c0.3,0,0.5-0.1,0.8-0.3L148.8,75.3z"/>
<path class="st0" d="M154.2,75.8c-0.3-0.7-0.6-1.1-1.2-1.1c-0.3,0-0.6,0.3-0.6,0.6c0,0,0,0,0,0c0,0.4,0.3,0.6,0.9,0.9
	c0.9,0.4,1.5,0.8,1.5,1.6c-0.1,1-0.9,1.7-1.9,1.6c0,0,0,0,0,0c-0.5,0-0.9-0.1-1.3-0.4c-0.1-0.5-0.2-0.9-0.2-1.4l0.3,0
	c0.2,0.7,0.7,1.4,1.4,1.4c0.4,0,0.7-0.3,0.7-0.6c0,0,0,0,0,0c0-0.4-0.2-0.6-0.8-0.9c-0.6-0.3-1.4-0.7-1.4-1.6c0-0.9,0.8-1.6,1.7-1.5
	c0,0,0.1,0,0.1,0c0.4,0,0.7,0.1,1,0.2c0.1,0.4,0.2,0.8,0.3,1.2L154.2,75.8z"/>
</svg>
